<svg xmlns="http://www.w3.org/2000/svg" width="18" height="18" viewBox="0 0 18 18">
    <g fill="none" fillRule="evenodd">
        <g>
            <g>
                <g>
                    <g>
                        <g>
                            <g transform="translate(-560 -266) translate(421 17) translate(30 91) translate(0 158) translate(70) translate(39)">
                                <circle cx="9" cy="9" r="9" fill="#FFF"/>
                                <path fill="#000" d="M9 2c3.866 0 7 3.134 7 7s-3.134 7-7 7-7-3.134-7-7 3.134-7 7-7zm0 1.273C5.837 3.273 3.273 5.837 3.273 9c0 3.163 2.564 5.727 5.727 5.727 3.163 0 5.727-2.564 5.727-5.727 0-3.163-2.564-5.727-5.727-5.727zm2.095 2.732l.9.9L9.9 9l2.095 2.095-.9.9L9 9.9l-2.095 2.095-.9-.9L8.1 9 6.005 6.905l.9-.9L9 8.1l2.095-2.095z"/>
                            </g>
                        </g>
                    </g>
                </g>
            </g>
        </g>
    </g>
</svg>
