<svg xmlns="http://www.w3.org/2000/svg" width="78" height="95" viewBox="0 0 78 95">
    <g fill="none" fillRule="evenodd">
        <g fill="#000014">
            <path d="M734.795 509L759 533.12v62.244c0 4.77-3.88 8.636-8.667 8.636h-60.666c-4.787 0-8.667-3.867-8.667-8.636v-77.728c0-4.77 3.88-8.636 8.667-8.636h45.128zM724 517h-35v78h61v-52h-17.429c-4.733 0-8.571-3.838-8.571-8.571V517zm5 52v9h-26v-9h26zm8-17v9h-35v-9h35zm-4.429-33.205v15.634l15.72-.001-15.72-15.633z" transform="translate(-681 -509)"/>
        </g>
    </g>
</svg>
