<svg xmlns="http://www.w3.org/2000/svg" width="78" height="74" viewBox="0 0 78 74">
    <g fill="none" fillRule="evenodd">
        <g fillRule="nonzero">
            <g>
                <path fill="#ECEFF1" d="M75.532 64H40.975c-1.363 0-2.469-1.1-2.469-2.455v-49.09c0-1.355 1.106-2.455 2.469-2.455h34.557C76.894 10 78 11.1 78 12.455v49.09C78 62.9 76.894 64 75.532 64z" transform="translate(-681 -519) translate(681 519)"/>
                <g fill="#388E3C">
                    <path d="M12.342 4.98H2.468C1.106 4.98 0 3.863 0 2.49 0 1.118 1.106.003 2.468.003h9.874c1.362 0 2.468 1.115 2.468 2.489 0 1.373-1.106 2.488-2.468 2.488zM12.342 14.935H2.468C1.106 14.935 0 13.82 0 12.446c0-1.374 1.106-2.489 2.468-2.489h9.874c1.362 0 2.468 1.115 2.468 2.49 0 1.373-1.106 2.488-2.468 2.488zM12.342 24.89H2.468C1.106 24.89 0 23.777 0 22.403c0-1.374 1.106-2.49 2.468-2.49h9.874c1.362 0 2.468 1.116 2.468 2.49s-1.106 2.489-2.468 2.489zM12.342 34.846H2.468C1.106 34.846 0 33.731 0 32.357c0-1.374 1.106-2.489 2.468-2.489h9.874c1.362 0 2.468 1.115 2.468 2.49 0 1.373-1.106 2.488-2.468 2.488zM27.152 4.98h-4.937c-1.362 0-2.468-1.116-2.468-2.49 0-1.373 1.106-2.488 2.468-2.488h4.937c1.362 0 2.468 1.115 2.468 2.489 0 1.373-1.106 2.488-2.468 2.488zM27.152 14.935h-4.937c-1.362 0-2.468-1.115-2.468-2.489 0-1.374 1.106-2.489 2.468-2.489h4.937c1.362 0 2.468 1.115 2.468 2.49 0 1.373-1.106 2.488-2.468 2.488zM27.152 24.89h-4.937c-1.362 0-2.468-1.114-2.468-2.488 0-1.374 1.106-2.49 2.468-2.49h4.937c1.362 0 2.468 1.116 2.468 2.49s-1.106 2.489-2.468 2.489zM27.152 34.846h-4.937c-1.362 0-2.468-1.115-2.468-2.489 0-1.374 1.106-2.489 2.468-2.489h4.937c1.362 0 2.468 1.115 2.468 2.49 0 1.373-1.106 2.488-2.468 2.488z" transform="translate(-681 -519) translate(681 519) translate(38.506 20)"/>
                </g>
                <path fill="#2E7D32" d="M42.57.57c-.55-.468-1.29-.67-1.985-.522L1.97 7.448C.825 7.663 0 8.68 0 9.87v54.264c0 1.184.825 2.205 1.97 2.422l38.615 7.4c.145.03.295.044.445.044.56 0 1.105-.197 1.54-.567.554-.469.873-1.17.873-1.9V2.47c0-.735-.319-1.43-.874-1.9z" transform="translate(-681 -519) translate(681 519)"/>
                <path fill="#FAFAFA" d="M32.972 44.93l-7.631-8.872 7.718-10.093c.82-1.07.627-2.612-.42-3.447-1.048-.835-2.563-.638-3.389.427l-7.148 9.348-6.023-7.001c-.884-1.031-2.409-1.124-3.403-.23-1.004.893-1.105 2.444-.227 3.46l6.637 7.718-6.729 8.798c-.82 1.07-.627 2.612.42 3.446.444.35.97.516 1.487.516.719 0 1.429-.324 1.906-.948l6.154-8.051 7.018 8.155c.478.56 1.144.844 1.815.844.565 0 1.13-.201 1.588-.609 1.004-.893 1.105-2.445.227-3.461z" transform="translate(-681 -519) translate(681 519)"/>
            </g>
        </g>
    </g>
</svg>
