<svg xmlns="http://www.w3.org/2000/svg" width="14" height="20" viewBox="0 0 14 20">
    <g fill="none" fill-rule="evenodd">
        <g fill="#E7535E" fill-rule="nonzero">
            <g>
                <g>
                    <g>
                        <path d="M3.064 6.042c-.117-.088-.233-.088-.38-.03C1.695 6.48.792 7.79.325 9.45c-.64 2.244-.32 4.516.846 6.294 1.165 1.719 3.205 2.884 5.448 3.059.204.029.408.029.641.029 1.981 0 3.788-.757 5.04-2.098 1.807-1.952 2.273-5.535-.32-8.653-.379-.466-.757-.874-1.107-1.282C9.066 4.79 7.9 3.507 9.153.506c.058-.117.03-.292-.058-.379-.088-.116-.233-.146-.379-.116-2.914.903-4.079 2.738-3.525 5.652.029.175.087.379.145.612.32 1.223.466 2.097-.408 2.476-.262.117-.495.058-.757-.146-.612-.466-1.02-1.544-.933-2.185-.029-.174-.087-.291-.174-.378zM9.91 14.49c-.292.728-1.457 1.02-2.419.932-.786-.058-1.398-.379-1.486-.757-.174-.787.263-1.282.962-2.01.553-.583 1.165-1.195 1.398-2.128.933 1.02 2.156 2.506 1.545 3.963z" transform="translate(-962 -840) translate(767 834) translate(62 .077) translate(133 6.73)"/>
                    </g>
                </g>
            </g>
        </g>
    </g>
</svg>
