<svg xmlns="http://www.w3.org/2000/svg" width="16" height="16" viewBox="0 0 16 16">
    <g fill="none" fillRule="evenodd">
        <g>
            <g transform="translate(-491 -495) translate(491 495)">
                <circle cx="8" cy="8" r="8" fill="#0096dc"/>
                <path fill="#FFF" fillRule="nonzero" d="M5.75 6.856H4.287c-.149 0-.27.12-.27.27v4.331c0 .15.121.27.27.27H5.75c.149 0 .27-.12.27-.27V7.126c0-.15-.121-.27-.27-.27zm-.734 4.401c-.25 0-.454-.203-.454-.454 0-.25.204-.454.454-.454s.454.204.454.454-.203.454-.454.454zm7.603-3.822c.054-.606-.511-.783-.735-.783H9.276c.125-.273.278-.995.086-1.99-.076-.393-.308-.654-.604-.65-.238.005-.465.189-.49.418-.025.251-.087.61-.146.855-.187.784-1.188 1.818-1.821 2.18v3.828c.43.243.895.328 1.393.318.785-.015 3.03-.002 3.437-.004.288-.002.575-.14.713-.487.189-.475-.297-.712-.297-.712s.532.026.654-.451c.124-.49-.365-.684-.365-.684.33-.037.543-.123.623-.421.094-.352-.132-.616-.49-.769.054-.005.601-.093.65-.648z"/>
            </g>
        </g>
    </g>
</svg>
