<svg xmlns="http://www.w3.org/2000/svg" width="301" height="320" viewBox="0 0 301 320">
    <g fill="none" fill-rule="evenodd">
        <g fill-rule="nonzero">
            <g>
                <g>
                    <path fill="#F5F5F5" d="M.253 137.977v36.552c0 6.615 5.362 11.977 11.977 11.977h131.056c6.612-.004 11.97-5.365 11.97-11.977v-30.882l16.32-17.14-159.3-.5c-3.183-.012-6.24 1.244-8.496 3.49-2.256 2.245-3.525 5.297-3.527 8.48z" transform="translate(-534 -487) translate(534 487) translate(0 6.138)"/>
                    <path fill="#E0E0E0" d="M135.936 148.151L17.018 147.598 17.026 143.946 135.951 144.491zM135.936 160.174L17.018 159.629 17.026 155.969 135.951 156.522z" transform="translate(-534 -487) translate(534 487) translate(0 6.138)"/>
                    <path fill="#E0E0E0" d="M110.583 146.421H114.235V193.47699999999998H110.583z" transform="translate(-534 -487) translate(534 487) translate(0 6.138) rotate(-89.72 112.41 169.949)"/>
                    <path fill="#F5F5F5" d="M121.688 264.269v36.552c0 6.615 5.362 11.977 11.977 11.977h131.04c6.613-.004 11.97-5.365 11.97-11.977v-30.882l16.32-17.141-159.307-.499c-3.18-.006-6.23 1.252-8.481 3.497-2.251 2.245-3.517 5.293-3.519 8.473z" transform="translate(-534 -487) translate(534 487) translate(0 6.138)"/>
                    <path fill="#E0E0E0" d="M257.946 273.491L139.02 272.946 139.028 269.286 257.954 269.839zM257.946 285.514L139.02 284.969 139.028 281.309 257.954 281.862z" transform="translate(-534 -487) translate(534 487) translate(0 6.138)"/>
                    <path fill="#E0E0E0" d="M232.582 271.753H236.23399999999998V318.80899999999997H232.582z" transform="translate(-534 -487) translate(534 487) translate(0 6.138) rotate(-89.72 234.408 295.281)"/>
                    <path fill="#F5F5F5" d="M70.304.3h77.294c3.814 0 6.906 3.09 6.906 6.905v37.803c0 3.813-3.092 6.905-6.906 6.905H82.013c-3.814 0-6.906-3.092-6.906-6.905V5.079L70.304.3z" transform="translate(-534 -487) translate(534 487) translate(0 6.138)"/>
                    <path fill="#E0E0E0" d="M115.09 37.051v24.246c0 4.385-3.556 7.94-7.942 7.94h-86.9c-2.11.007-4.137-.827-5.633-2.316-1.495-1.49-2.337-3.513-2.339-5.624V40.81L1.488 29.44l105.66-.33c4.386 0 7.942 3.555 7.942 7.941z" transform="translate(-534 -487) translate(534 487) translate(0 6.138)"/>
                    <path fill="#F5F5F5" d="M25.12 43.795L103.995 43.435 103.987 41.01 25.113 41.379zM25.12 51.775L103.995 51.407 103.987 48.99 25.113 49.35zM24.668 57.445H55.879999999999995V59.87H24.668z" transform="translate(-534 -487) translate(534 487) translate(0 6.138)"/>
                    <path fill="#E0E0E0" d="M279.775 149.463v24.245c0 4.386-3.555 7.942-7.941 7.942H184.91c-4.387 0-7.944-3.555-7.948-7.942v-20.485l-10.819-11.371 105.66-.33c2.11-.006 4.137.827 5.633 2.317 1.495 1.49 2.337 3.513 2.339 5.624z" transform="translate(-534 -487) translate(534 487) translate(0 6.138)"/>
                    <path fill="#F5F5F5" d="M189.783 156.215L268.665 155.847 268.65 153.422 189.775 153.79zM189.783 164.187L268.665 163.826 268.65 161.402 189.775 161.762zM188.777 170.67H219.98899999999998V173.095H188.777z" transform="translate(-534 -487) translate(534 487) translate(0 6.138)"/>
                </g>
                <g>
                    <path fill="#0096DC" d="M157.75 199.22c-12.99-12.652-13.205-32.225-9.83-49.22.568-2.839.768-5.9 2.517-8.187 1.75-2.286 5.21-3.475 7.573-1.849 1.957 1.343 2.478 3.96 3.33 6.192 1.135 2.98 3.093 5.578 5.647 7.489 1.665 1.242 3.837 2.186 5.77 1.496 2.685-.96 3.537-4.312 3.982-7.151.829-5.3 1.663-10.596 2.501-15.89.445-2.847.913-5.747 2.233-8.294 1.32-2.548 3.69-4.734 6.514-5.049 2.824-.315 5.908 1.788 6.023 4.665-.087 1.191-.253 2.376-.498 3.545-.116 1.189.222 2.585 1.289 3.069 1.066.483 2.347-.1 3.33-.767 3.398-2.387 5.992-5.747 8.44-9.116 2.447-3.368 4.88-6.836 8.056-9.529 3.176-2.693 7.25-4.565 11.355-4.128 4.105.438 8.033 3.652 8.402 7.826.368 4.174-2.624 7.85-5.693 10.673-4.557 4.189-9.695 7.698-15.254 10.42-.997.49-2.079 1.012-2.593 2.01-.928 1.795.56 3.966 2.302 4.895 2.002 1.05 4.327 1.204 6.499 1.833 2.17.63 4.411 1.988 4.91 4.22.683 3.07-2.24 5.732-4.957 7.335-5.437 3.208-11.385 5.456-17.585 6.645-2.21.422-4.52.729-6.445 1.926-1.926 1.197-3.353 3.575-2.663 5.739.69 2.164 3.192 3.238 5.448 3.192 2.256-.046 4.404-.921 6.621-1.366 4.144-.829 9.139.26 11.08 4.043 1.281 2.486.92 5.594-.346 8.103-1.374 2.449-3.226 4.596-5.447 6.314-7.458 6.307-16.427 10.903-25.995 12.56-9.568 1.658-18.084 1.136-26.54-3.629" transform="translate(-534 -487) translate(534 487) translate(47.57 76.726)"/>
                    <path fill="#263238" d="M155.448 211.864c2.083-7.8 4.909-15.381 8.44-22.641 4.364-8.85 9.231-17.442 14.577-25.735l4.174-6.544c1.374-2.149 2.732-4.282 4.197-6.276 2.82-3.841 5.85-7.522 9.077-11.026 3.07-3.368 6.061-6.445 8.908-9.307 2.847-2.862 5.547-5.463 8.118-7.734 4.03-3.61 8.34-6.894 12.89-9.82 1.61-1.037 2.885-1.804 3.752-2.303l.997-.575c.116-.074.24-.135.368-.184-.1.086-.208.163-.322.23l-.967.614c-.851.53-2.102 1.32-3.69 2.386-4.499 2.981-8.764 6.3-12.76 9.928-2.547 2.302-5.225 4.903-8.056 7.765-2.831 2.862-5.824 5.962-8.854 9.322-3.195 3.496-6.197 7.164-8.993 10.987-1.45 1.988-2.8 4.105-4.174 6.254-1.373 2.148-2.754 4.335-4.166 6.544-5.33 8.28-10.197 16.847-14.578 25.665-3.547 7.223-6.409 14.762-8.547 22.52" transform="translate(-534 -487) translate(534 487) translate(47.57 76.726)"/>
                    <path fill="#263238" d="M187.013 150.668c-.068-.416-.094-.838-.077-1.259v-3.422c.061-2.892.284-6.905.537-11.286.253-4.381.43-8.379.445-11.271v-3.415c-.033-.42-.018-.842.046-1.258.095.41.15.83.161 1.25.077.768.13 1.973.17 3.423.076 2.892 0 6.905-.292 11.301-.292 4.397-.507 8.272-.699 11.272-.069 1.35-.13 2.493-.184 3.414.013.42-.023.84-.107 1.25z" transform="translate(-534 -487) translate(534 487) translate(47.57 76.726)"/>
                    <path fill="#263238" d="M224.632 149.824c-.495.028-.99.008-1.481-.062-.952-.069-2.302-.184-4.028-.26-3.407-.185-8.11-.277-13.312-.154-5.202.123-9.898.453-13.297.767-1.696.154-3.069.315-4.013.422-.491.085-.99.124-1.488.115.475-.15.963-.258 1.458-.322.943-.169 2.301-.384 4.005-.59 3.399-.43 8.11-.806 13.327-.945 4.45-.122 8.903-.017 13.343.315 1.703.13 3.069.292 4.028.43.494.046.982.141 1.458.284zM164.478 188.624s-.076-.161-.176-.483c-.1-.323-.246-.852-.415-1.427-.345-1.236-.805-3.07-1.342-5.272-1.074-4.473-2.363-10.688-3.698-17.578-1.335-6.89-2.57-13.104-3.553-17.593-.483-2.179-.882-3.974-1.174-5.31-.13-.575-.23-1.058-.314-1.45-.049-.167-.075-.34-.077-.514.086.154.148.32.184.491.107.384.238.852.407 1.42.345 1.235.805 3.069 1.342 5.279 1.075 4.465 2.371 10.688 3.699 17.578 1.327 6.89 2.57 13.105 3.552 17.593.483 2.18.882 3.974 1.174 5.31.13.575.23 1.05.315 1.442.047.167.073.34.076.514z" transform="translate(-534 -487) translate(534 487) translate(47.57 76.726)"/>
                    <path fill="#263238" d="M215.54 180.936c-.166.061-.339.1-.514.115l-1.489.246-5.47.828c-4.604.706-10.98 1.757-18.016 2.916-7.036 1.158-13.42 2.156-18.054 2.762-2.301.307-4.196.537-5.493.668l-1.535.145c-.173.027-.349.027-.521 0 .166-.056.339-.095.514-.115l1.48-.245 5.471-.829c4.604-.706 10.987-1.75 18.023-2.915 7.036-1.167 13.42-2.157 18.054-2.763 2.302-.307 4.189-.537 5.493-.667l1.535-.138c.172-.03.348-.033.522-.008z" transform="translate(-534 -487) translate(534 487) translate(47.57 76.726)"/>
                    <path fill="#455A64" d="M28.68 26.693c-2.354-1.963-3.476-5.038-2.938-8.056.588-2.98 2.346-5.6 4.88-7.274 1.143-.767 2.562-1.412 3.897-1.02 1.246.454 2.15 1.545 2.363 2.854.194 1.296.04 2.62-.445 3.836-1.457 4.205-3.636 8.01-7.757 9.683M24.79 33.875c-4.795-4.291-11.366-6.005-17.647-4.604-1.534.36-3.337 1.19-3.59 2.778-.254 1.588 1.158 2.946 2.554 3.76 6.027 3.345 13.475 2.74 18.883-1.535M2.302.621c2.633-.607 5.4-.126 7.672 1.336 2.26 1.474 4.15 3.448 5.525 5.77 2.777 4.388 3.76 10.296 3.882 15.49-5.77-.23-10.696-4.764-13.043-7.227C2.608 12.107-1.765 2.83 2.256.645" transform="translate(-534 -487) translate(534 487) translate(47.57 76.726)"/>
                    <path fill="#263238" d="M33.514 41.724c-.525-.696-1.007-1.424-1.442-2.18-1.493-2.926-2.585-6.041-3.246-9.26-.65-3.261-.401-6.637.721-9.767.351-.937.818-1.826 1.39-2.647.193-.314.434-.596.713-.837-.667 1.16-1.242 2.371-1.72 3.622-.972 3.081-1.157 6.358-.536 9.53.669 3.175 1.699 6.264 3.069 9.206" transform="translate(-534 -487) translate(534 487) translate(47.57 76.726)"/>
                    <path fill="#263238" d="M33.568 41.793l-3.008-3.875c-2.524-3.276-6.03-7.795-9.974-12.736-3.944-4.942-7.558-9.361-10.182-12.553L7.335 8.793c-.404-.446-.769-.926-1.09-1.435.453.396.874.827 1.259 1.29.767.858 1.895 2.109 3.253 3.674 2.708 3.13 6.384 7.52 10.327 12.46 3.944 4.942 7.39 9.507 9.837 12.852 1.227 1.673 2.202 3.07 2.862 3.982" transform="translate(-534 -487) translate(534 487) translate(47.57 76.726)"/>
                    <path fill="#263238" d="M10.742 32.67c.313-.155.65-.259.997-.307.395-.109.798-.186 1.205-.23.536-.089 1.076-.148 1.619-.176 1.416-.09 2.837-.036 4.243.16 1.717.257 3.402.697 5.025 1.313 1.616.646 3.16 1.46 4.604 2.432 1.166.805 2.248 1.725 3.23 2.747.383.386.744.793 1.082 1.22.277.31.533.638.767.982.376.56.322.82.292.844-.749-.96-1.548-1.88-2.394-2.755-1.001-.957-2.085-1.825-3.238-2.593-1.422-.914-2.93-1.686-4.504-2.302-1.587-.602-3.229-1.046-4.903-1.327-1.37-.218-2.756-.31-4.143-.276-2.425.023-3.882.375-3.882.268z" transform="translate(-534 -487) translate(534 487) translate(47.57 76.726)"/>
                </g>
                <g>
                    <path fill="#263238" d="M107.985 305.171l-88.62-.414C8.72 304.694.138 296.021.185 285.376L1.12 63.199c.047-10.652 8.713-19.253 19.366-19.22l88.619.407c10.645.072 19.224 8.744 19.182 19.389l-.921 222.169c-.047 10.66-8.722 19.266-19.381 19.227z" transform="translate(-534 -487) translate(534 487) translate(79.028)"/>
                    <path fill="#FAFAFA" d="M108.951 52.059l-17.186-.085c-1.132.02-2.209.49-2.995 1.304-.785.814-1.215 1.908-1.195 3.04v3.114c.021 1.132-.409 2.225-1.195 3.04-.785.814-1.862 1.283-2.994 1.303l-33.49-.154c-2.355-.066-4.212-2.026-4.152-4.38v-3.116c.06-2.357-1.8-4.318-4.158-4.38h-6.039l-15.038-.07c-7.469-.03-13.55 5.997-13.588 13.466l-.913 216.851c-.03 7.465 5.993 13.543 13.457 13.58l88.443.408c3.585.016 7.03-1.393 9.577-3.917 2.547-2.524 3.987-5.956 4.003-9.541l.914-216.86c.026-3.589-1.378-7.041-3.901-9.594-2.524-2.552-5.96-3.995-9.55-4.01z" transform="translate(-534 -487) translate(534 487) translate(79.028)"/>
                    <path fill="#455A64" d="M58.926 275.187c.115.765-.258 1.522-.936 1.895-.678.374-1.517.286-2.102-.22-.586-.507-.794-1.325-.522-2.05.273-.724.967-1.202 1.741-1.198.933-.058 1.741.641 1.819 1.573zM64.58 275.217c.113.766-.263 1.52-.942 1.891-.678.371-1.516.28-2.1-.227-.584-.507-.79-1.324-.517-2.048s.968-1.2 1.741-1.196c.936-.057 1.745.646 1.819 1.58zM70.235 275.24c.116.766-.257 1.522-.935 1.896-.678.374-1.517.286-2.103-.22-.585-.507-.793-1.325-.521-2.05.272-.724.967-1.203 1.74-1.198.935-.062 1.746.639 1.82 1.572z" transform="translate(-534 -487) translate(534 487) translate(79.028)"/>
                    <path fill="#EBEBEB" d="M33.391 156.598c1.443.208 88.374 17.256 88.374 17.256v-17.256H33.39zM6.038 266.164s94.573-13.381 93.745-12.967c-.829.414-93.745 0-93.745 0v12.967z" transform="translate(-534 -487) translate(534 487) translate(79.028)"/>
                    <path fill="#263238" d="M115.857 12.974c.107 0 .2 4.78.2 10.673s-.093 10.68-.2 10.68c-.108 0-.2-4.78-.2-10.68 0-5.9.092-10.673.2-10.673zM153.706 37.55c.046.1-4.297 2.11-9.69 4.488-5.395 2.379-9.806 4.236-9.852 4.128-.046-.107 4.296-2.11 9.69-4.488 5.394-2.379 9.806-4.236 9.852-4.128zM152.747.276c-.046.148-.113.287-.2.415-.176.291-.391.667-.66 1.127-.575.983-1.427 2.387-2.5 4.105-2.15 3.453-5.241 8.133-8.748 13.243-3.506 5.11-6.621 9.768-8.83 13.174-1.083 1.665-1.965 3.07-2.61 4.036l-.72 1.09c-.077.133-.17.257-.277.368.057-.144.126-.283.207-.415.177-.291.392-.667.66-1.127.568-.983 1.427-2.379 2.501-4.105 2.149-3.453 5.24-8.133 8.74-13.243 3.498-5.11 6.629-9.737 8.838-13.167l2.609-4.043.721-1.09c.08-.13.17-.253.269-.368z" transform="translate(-534 -487) translate(534 487) translate(79.028)"/>
                </g>
                <g>
                    <path fill="#0096DC" d="M257.977.07H84.997c-1.794 0-3.514.712-4.782 1.982-1.268 1.269-1.98 2.99-1.977 4.784v53.655c-.002 1.794.71 3.515 1.977 4.785 1.268 1.27 2.988 1.982 4.782 1.982h12.89c1.036 5.601 2.249 12.668 2.249 12.668l11.662-12.668h146.179c1.794 0 3.515-.713 4.782-1.982 1.268-1.27 1.98-2.99 1.978-4.785V6.836c.002-1.794-.71-3.515-1.978-4.784-1.267-1.27-2.988-1.983-4.782-1.983z" transform="translate(-534 -487) translate(534 487) translate(26.854 90.537)"/>
                    <path fill="#F5F5F5" d="M186.606 29.156c0 .107-20.586.2-45.974.2-25.389 0-45.982-.093-45.982-.2 0-.107 20.585-.207 45.982-.207 25.396 0 45.974.115 45.974.207zM186.606 20.93c0 .108-20.586.2-45.974.2-25.389 0-45.982-.092-45.982-.2 0-.106 20.585-.199 45.982-.199 25.396 0 45.974.085 45.974.2zM186.606 37.335c0 .107-20.586.2-45.974.2-25.389 0-45.982-.093-45.982-.2 0-.107 20.585-.2 45.982-.2 25.396 0 45.974.085 45.974.2zM154.88 45.783c0 .107-13.481.2-30.115.2-16.635 0-30.115-.093-30.115-.2 0-.108 13.48-.2 30.115-.2 16.634 0 30.115.085 30.115.2z" transform="translate(-534 -487) translate(534 487) translate(26.854 90.537)"/>
                    <path fill="#455A64" d="M179.816 96.537H5.425c-1.258-.002-2.464.497-3.353 1.387-.888.89-1.386 2.097-1.381 3.355v56.777c0 2.615 2.119 4.734 4.734 4.734h126.66l11.508 12.53s1.205-7.044 2.225-12.53h33.975c2.614 0 4.734-2.12 4.734-4.734V101.28c.004-1.254-.49-2.458-1.374-3.347-.883-.889-2.084-1.39-3.337-1.395z" transform="translate(-534 -487) translate(534 487) translate(26.854 90.537)"/>
                    <path fill="#F5F5F5" d="M172.98 125.831c0 .108-20.586.2-45.983.2-25.396 0-45.982-.092-45.982-.2 0-.107 20.586-.2 45.982-.2 25.397 0 45.983.062 45.983.2zM172.98 117.56c0 .108-20.586.2-45.983.2-25.396 0-45.982-.092-45.982-.2 0-.107 20.586-.2 45.982-.2 25.397 0 45.983.085 45.983.2zM172.98 133.964c0 .108-20.586.2-45.983.2-25.396 0-45.982-.092-45.982-.2 0-.107 20.586-.2 45.982-.2 25.397 0 45.983.093 45.983.2zM141.253 142.412c0 .115-13.48.2-30.115.2-16.634 0-30.123-.085-30.123-.2s13.489-.2 30.123-.2 30.115.092 30.115.2z" transform="translate(-534 -487) translate(534 487) translate(26.854 90.537)"/>
                </g>
                <g transform="translate(-534 -487) translate(534 487) translate(216.368 43.734)">
                    <path fill="#1E100A" d="M24.974 24.115c.108-1.412-1.15-3.353-2.301-4.473-1.363-1.228-1.867-3.149-1.282-4.888.468-1.741 1.573-1.61 2.01-2.639.213-.795.299-1.618.254-2.44.184-1.403.943-2.666 2.096-3.487 1.152-.82 2.594-1.125 3.98-.84.78-2.786 3.183-4.814 6.06-5.113 2.878-.3 5.647 1.189 6.984 3.755 1.613-.82 3.529-.781 5.108.103 1.578.884 2.612 2.497 2.756 4.3 1.665-1.061 3.859-.734 5.141.768 1.19 1.554 1.336 3.67.368 5.371-.985 1.673-2.68 2.803-4.603 3.069-1.904.242-3.835-.11-5.532-1.005-1.69-.89-3.224-2.048-4.542-3.43"/>
                    <ellipse cx="37.519" cy="79.849" fill="#E0E0E0" rx="33.215" ry="32.44"/>
                    <path fill="#EB996E" d="M70.872 79.872l-3.675-9.422-13.174 8.279 11.74 18.1s4.772-6.2 5.11-16.957z"/>
                    <path fill="#FFBE9D" d="M34.527 59.463c4.714.027 8.62-3.649 8.877-8.356.192-3.905.36-7.672.36-7.672s7.244-.522 7.911-7.611c.668-7.09.767-23.471.767-23.471-8-4.199-17.637-3.78-25.243 1.097l-.69.437-.837 36.676c-.016 2.357.91 4.623 2.573 6.295 1.663 1.671 3.924 2.61 6.282 2.605z"/>
                    <path fill="#263238" d="M38.655 23.263c.532.188.814.77.63 1.304-.183.534-.762.82-1.298.641-.535-.178-.826-.756-.652-1.292.186-.544.775-.835 1.32-.653z"/>
                    <path fill="#263238" d="M40.665 23.632c-.123.115-.767-.468-1.78-.53-1.013-.061-1.734.4-1.834.269-.1-.13.077-.276.4-.491.44-.279.96-.408 1.48-.368.518.035 1.01.236 1.404.575.269.26.368.491.33.545zM49.473 23.263c.533.188.814.77.63 1.304-.182.534-.762.82-1.297.641-.536-.178-.827-.756-.653-1.292.186-.544.776-.835 1.32-.653z"/>
                    <path fill="#263238" d="M51.59 23.647c-.114.123-.766-.46-1.78-.522-1.012-.061-1.733.4-1.833.269-.1-.13.077-.276.407-.491.438-.28.955-.409 1.473-.368.52.036 1.014.238 1.412.575.291.26.383.491.322.537zM44.148 31.312c.524-.162 1.072-.232 1.62-.207.26 0 .467-.046.498-.184.036-.263-.007-.53-.123-.768-.2-.667-.406-1.342-.621-2.048-.844-2.916-1.404-5.31-1.259-5.371.146-.061.96 2.302 1.803 5.202.2.706.384 1.389.576 2.056.14.342.158.72.054 1.074-.094.194-.273.333-.484.376-.148.019-.297.019-.445 0-.543.05-1.09.005-1.619-.13z"/>
                    <path fill="#EB996E" d="M43.734 43.343c-3.305-.205-6.477-1.382-9.115-3.384 0 0 1.788 5.287 8.985 5.225l.13-1.841z"/>
                    <path fill="#FFBE9D" d="M26.294 24.307c.013-.579-.435-1.064-1.013-1.097-1.335-.062-3.53.422-3.836 4.074-.399 5.217 4.696 4.013 4.719 3.836.023-.176.107-4.78.13-6.813z"/>
                    <path fill="#EB996E" d="M25.074 29.072s-.1.061-.26.115c-.22.09-.465.09-.684 0-.66-.485-1.003-1.29-.897-2.103.02-.448.14-.886.353-1.28.133-.33.42-.57.767-.645.222-.045.443.079.522.291.061.146 0 .253.046.261.046.008.122-.077.092-.3-.02-.13-.085-.25-.184-.337-.135-.12-.311-.183-.491-.176-.452.057-.84.349-1.02.767-.264.431-.412.922-.43 1.427-.122.949.337 1.877 1.166 2.356.281.101.593.073.851-.077.146-.169.185-.284.17-.3z"/>
                    <path fill="#263238" d="M35.97 20.847c.26.337 1.166.184 2.347.13 1.182-.054 2.095-.046 2.302-.414.207-.369-.89-1.251-2.41-1.12-1.518.13-2.531 1.058-2.24 1.404zM47.463 20.501c.138.453 1.005.591 1.964.583.96-.007 1.819-.176 1.949-.636.13-.46-.767-1.082-1.972-1.067-1.205.015-2.087.675-1.941 1.12z"/>
                    <path fill="#1E100A" d="M53.417 14.578s-4.304 2.087-9.898-.706c-3.675-1.834-7.949-2.731-8.892-1.995-.944.737-1.144 4.527-4.78 5.632 0 0 .245 7.212-2.632 6.959-2.877-.253-1.082-11.425-1.082-11.425l7.043-3.437 7.673-1.45 7.235 1.02 5.601 1.535-.268 3.867z"/>
                    <path fill="#455A64" d="M5.225 56.379c7.527-7.742 20.77-6.906 20.77-6.906l10.98 7.865 6.222-7.251c4.412.6 8.694 1.925 12.675 3.92l.422.131v.085c4.819 2.616 11.632 8.892 18.13 14.976l-7.772 7.213-8.609 7.672c.02.05.02.105 0 .154-.084.468 1.197 10.972 2.517 18.951-7.606 7.502-18.422 10.772-28.91 8.74-3.522-.622-5.225-1.474-8.486-2.302-4.814-1.276-8.31-5.435-8.74-10.397-.583-6.69-1.028-14.977-1.028-14.977"/>
                    <path fill="#263238" d="M50.08 51.445c.192.398.35.811.475 1.235.284.768.66 1.972 1.113 3.422.905 2.9 2.063 6.906 3.153 11.456 1.09 4.55 1.91 8.639 2.425 11.631.26 1.535.452 2.716.567 3.56.082.433.131.872.146 1.312-.135-.42-.235-.851-.3-1.289-.176-.897-.406-2.087-.69-3.529-.59-2.977-1.45-7.082-2.54-11.593-1.089-4.512-2.194-8.57-3.022-11.463l-.998-3.46c-.14-.42-.25-.848-.33-1.282z"/>
                    <path fill="#263238" d="M57.146 79.105c-.07-.085 3.215-2.877 7.335-6.23 4.12-3.353 7.511-6.008 7.58-5.924.07.085-3.207 2.878-7.327 6.23-4.12 3.354-7.511 6.008-7.588 5.924z"/>
                    <path fill="#000" d="M15.161 66.997L8.44 89.148l2.509 1.305 2.47-6.261s2.517-13.166 1.742-17.195z" opacity=".2"/>
                    <g fill="#000" opacity=".2">
                        <path d="M10.22 1.588C13.85 3.498 4.75 8.102.645 7.98L3.629.107S9 .944 10.22 1.588z" transform="translate(39.13 49.872)"/>
                    </g>
                    <path fill="#455A64" d="M24.913 49.98v-5.87s11.455 2.954 11.87 9.806c0 0 1.457-7.581 7.365-7.942l.837 10.658-6.906 5.984h-6.928l-5.517-4.764-.721-7.397"/>
                    <path fill="#263238" d="M39.368 86.8c-.04-.418-.04-.84 0-1.258 0-.813 0-1.987.039-3.437 0-2.893-.085-6.906-.445-11.302-.361-4.396-.944-8.37-1.427-11.225-.246-1.373-.453-2.509-.607-3.376-.1-.41-.16-.829-.184-1.25.144.397.257.805.338 1.22.2.767.453 1.933.729 3.36.71 3.717 1.222 7.47 1.534 11.24.31 3.772.418 7.557.323 11.34-.039 1.45-.093 2.625-.162 3.438-.016.42-.062.837-.138 1.25zM36.26 51.944c-.228-.039-.463-.018-.682.061-.562.317-.976.844-1.15 1.466-.947 2.046-1.685 4.182-2.203 6.376l-.061.26-.23-.138c-.683-.414-1.39-.859-2.095-1.335-1.286-.875-2.526-1.818-3.714-2.823-.54-.451-.973-1.018-1.266-1.658-.23-.563-.36-1.163-.383-1.772-.023-.861.062-1.722.253-2.563.046-.313.13-.62.253-.913-.01.314-.043.627-.1.936-.13.835-.17 1.681-.122 2.525.036.57.174 1.128.406 1.65.281.595.693 1.12 1.205 1.534 1.082.905 2.34 1.841 3.69 2.762.706.476 1.397.928 2.08 1.343l-.292.122c.513-2.203 1.285-4.339 2.302-6.36.156-.354.357-.687.598-.99.19-.234.443-.407.73-.499.582-.184.797.008.782.016zM44.148 45.974c.07.3.106.606.108.913l.184 2.502c.084 1.05.215 2.302.43 3.675.184.737.23 1.502.138 2.256-.29.79-.83 1.466-1.535 1.926-.897.556-1.74 1.196-2.516 1.91l-.307.345v-.46c-.14-2.004-.719-3.953-1.696-5.709-.729-1.312-1.327-1.98-1.281-2.017.046-.039.184.138.452.452.386.453.735.935 1.044 1.443 1.067 1.763 1.705 3.753 1.864 5.808l-.337-.115c.788-.744 1.65-1.408 2.57-1.98.623-.41 1.101-1.005 1.366-1.703.08-.703.039-1.414-.123-2.102-.192-1.39-.292-2.655-.345-3.714-.054-1.059-.062-1.918-.054-2.509-.026-.307-.013-.617.038-.92zM81.03 47.448c-.467.544-17.347 23.14-17.347 23.14l2.378 1.35 17.31-22.25-2.34-2.24z"/>
                    <path fill="#FFBE9D" d="M13.258 65.279s17.747 25.55 18.821 26.048c2.103.99 26.379-19.987 28.696-21.997.322-.43.982-1.327 2.302-3.115 0 0 1.918-8.762 3.959-8.095 2.04.668-1.12 4.458.215 7.788 1.335 3.33 7.427-4.604 7.672-5.325l1.573-2.056s1.65 4.672 1.535 6.629c-.36 6.253-6.277 13.688-6.277 13.688s-26.57 32.916-44.77 33.936c-5.24.292-14.577-14.578-20.785-25.734-3.75-6.741-1.884-15.222 4.35-19.765l2.71-2.002z"/>
                    <path fill="#EB996E" d="M75.015 66.26c.34-.785.72-1.553 1.136-2.3.342-.788.726-1.557 1.15-2.303-.483 1.661-1.263 3.22-2.301 4.604h.015z"/>
                    <path fill="#455A64" d="M10.258 52.81s-19.05 6.776-4.887 38.809l21.99-13.274-3.13-7.488L10.257 52.81z"/>
                    <path fill="#263238" d="M8.8 53.37c.773-.071 1.552-.006 2.302.193.878.227 1.718.581 2.494 1.05 1.025.64 1.96 1.414 2.777 2.303 2.078 2.32 3.819 4.92 5.172 7.726 1.611 3.115 3.115 6.667 4.657 10.389.46 1.12.92 2.217 1.35 3.26l.07.17-.162.084c-6.36 3.468-11.9 6.713-15.813 9.146-1.964 1.212-3.522 2.21-4.604 2.9l-1.227.767c-.14.098-.29.182-.445.253.122-.118.255-.223.399-.314.268-.2.667-.491 1.197-.852 1.043-.767 2.585-1.765 4.527-3.008 3.882-2.493 9.406-5.792 15.775-9.268l-.093.245c-.43-1.043-.89-2.14-1.35-3.26-1.534-3.722-3.069-7.267-4.603-10.374-1.328-2.775-3.026-5.356-5.05-7.673-.79-.88-1.693-1.655-2.685-2.301-.758-.477-1.58-.846-2.44-1.098-.738-.176-1.49-.289-2.247-.337z"/>
                    <path fill="#455A64" d="M49.772 5.877c.049.107.08.221.092.338.059.326.08.658.062.99-.074 1.246-.59 2.424-1.458 3.322-1.342 1.339-3.308 1.836-5.125 1.297-1.08-.288-2.016-.966-2.624-1.903-.323-.518-.46-1.129-.392-1.734.071-.639.415-1.216.944-1.58.554-.35 1.246-.396 1.842-.124.568.242 1.02.696 1.258 1.266.384 1.081.194 2.283-.507 3.192-1.189 1.54-3.313 2-5.033 1.09-.6-.315-1.237-.557-1.895-.722-.492-.11-1.007-.056-1.465.154-.384.207-.75.449-1.09.721 0 0 .07-.1.223-.268.094-.106.2-.201.314-.284.15-.125.315-.23.491-.315.475-.237 1.012-.317 1.535-.23.683.148 1.345.38 1.972.69.355.157.725.278 1.104.361.409.076.828.076 1.236 0 .918-.146 1.744-.644 2.302-1.389.616-.805.783-1.867.445-2.823-.185-.481-.566-.861-1.047-1.046-.482-.184-1.019-.155-1.478.08-.428.306-.707.78-.767 1.303-.055.518.064 1.039.338 1.481.556.857 1.408 1.48 2.393 1.75 1.695.519 3.538.082 4.819-1.144.844-.84 1.372-1.946 1.496-3.13.033-.447.038-.895.015-1.343z"/>
                    <path fill="#263238" d="M45.621 34.81c0 .047-.23.154-.652.17-1.122.015-2.181-.518-2.839-1.428-.23-.353-.299-.606-.253-.629.505.51 1.07.959 1.68 1.335.664.267 1.357.452 2.064.553zM25.504 31.458c.038 0 .253.337 0 .867-.162.302-.439.526-.767.621-.424.095-.868-.022-1.19-.314-.35-.287-.547-.721-.53-1.174.014-.338.138-.661.354-.92.368-.43.767-.477.767-.43 0 .045-.276.191-.522.598-.324.487-.246 1.138.185 1.534.228.208.538.301.844.254.253-.057.476-.205.629-.415.245-.314.168-.621.23-.621z"/>
                    <path fill="#455A64" d="M51.038 8.44c.253.427.38.916.369 1.412.125 2.517-1.756 4.687-4.266 4.918-.49.084-.993.025-1.45-.169 0-.069.56 0 1.411-.115 2.283-.35 3.98-2.295 4.02-4.604.024-.874-.153-1.404-.084-1.442z"/>
                    <path fill="#E0E0E0" d="M25.09 72.66c.046.1-5.01 2.7-11.302 5.808-6.292 3.107-11.425 5.555-11.51 5.455-.084-.1 5.003-2.7 11.295-5.816 6.291-3.115 11.47-5.547 11.517-5.447zM20.478 63.96c.054.091-4.45 2.615-10.059 5.623C4.811 72.591.223 74.954.176 74.854c-.046-.1 4.45-2.616 10.06-5.624 5.608-3.007 10.189-5.37 10.242-5.27zM16.02 56.923c-.716.497-1.467.94-2.248 1.328L8.263 61.32l-5.478 3.13c-.736.469-1.506.884-2.302 1.243.678-.554 1.402-1.05 2.164-1.48 1.366-.868 3.276-2.019 5.425-3.239 2.148-1.22 4.127-2.248 5.578-2.969.758-.428 1.55-.79 2.37-1.082zM32.877 55.243c-.519-.024-1.027-.16-1.488-.399-1.125-.504-2.16-1.185-3.07-2.018-.91-.831-1.747-1.74-2.5-2.716-.345-.376-.637-.796-.868-1.25.046 0 .445.375 1.082 1.074.637.698 1.496 1.65 2.555 2.593.892.81 1.885 1.501 2.954 2.056.79.437 1.35.614 1.335.66zM44.064 51.1c-.254.925-.814 1.736-1.588 2.302-.687.67-1.584 1.085-2.54 1.173.795-.448 1.564-.943 2.302-1.48.641-.634 1.251-1.3 1.826-1.995zM64.02 62.647c-.14.043-.283.069-.43.077l-1.235.153c-1.074.123-2.631.269-4.55.422-3.836.307-9.207.606-15.06.821-5.855.215-11.218.284-15.085.253-1.926 0-3.491-.053-4.565-.092l-1.243-.061c-.145 0-.29-.018-.43-.054.143-.018.287-.018.43 0h1.243l4.565-.038c3.836-.038 9.207-.161 15.069-.368 5.862-.208 11.202-.476 15.054-.706l4.557-.292 1.243-.077c.143-.032.29-.045.437-.038zM57.96 71.747c-.415.094-.836.161-1.26.2-.82.099-2.002.222-3.46.36-2.923.268-6.966.545-11.44.729-4.473.184-8.531.222-11.508.192-1.466 0-2.655-.046-3.476-.077-.427.003-.853-.03-1.274-.1.423-.05.848-.071 1.274-.061l3.476-.046c2.93 0 6.982-.13 11.447-.307 4.466-.177 8.517-.414 11.44-.614l3.468-.238c.435-.054.875-.067 1.312-.038zM44.202 82.964c-.835.193-1.684.314-2.54.36-1.58.162-3.76.338-6.176.461-2.417.123-4.604.161-6.192.154-.855.04-1.713.006-2.563-.1.846-.13 1.7-.19 2.555-.184l6.177-.269 6.138-.345c.864-.085 1.733-.11 2.601-.077zM26.624 56.34c0 .115-2.355.138-5.256.261-2.9.123-5.24.284-5.255.169 3.468-.613 7.004-.758 10.511-.43zM58.987 55.926c-2.266.186-4.54.243-6.813.169-2.276.06-4.554-.015-6.821-.223 2.268-.191 4.546-.25 6.82-.176 2.275-.06 4.55.016 6.814.23zM60.169 102.614c-.216.16-.45.294-.698.399-.46.238-1.144.552-1.995.913-2.238.921-4.548 1.658-6.906 2.202-2.357.537-4.753.884-7.166 1.036-.92.053-1.673.069-2.194.053-.257.012-.515-.006-.768-.053 0-.062 1.136-.108 2.97-.284 2.387-.23 4.758-.612 7.097-1.143 2.345-.539 4.652-1.234 6.905-2.08 1.665-.644 2.732-1.105 2.755-1.043z"/>
                </g>
                <g transform="translate(-534 -487) translate(534 487) translate(22.25 139.642)">
                    <ellipse cx="47.026" cy="79.45" fill="#E0E0E0" rx="33.215" ry="31.688"/>
                    <path fill="#1E100A" d="M40.258 3.07c-5.263.275-7.335 5.769-7.964 6.996-.54 1.273-.827 2.639-.844 4.021-.016 1.384-.363 2.744-1.013 3.967-1.158 1.849-3.598 2.808-4.258 4.887-.767 2.356 1.174 4.872.66 7.29-.276 1.296-1.22 2.362-1.535 3.644-.29 1.37-.034 2.798.714 3.982 1.726 2.977 5.317 4.465 8.754 4.603 3.438.138 6.798-.905 10.09-1.918M63.445 9.882c-.412 1.187-.115 2.505.767 3.4.884.847 1.839 1.617 2.854 2.301 1.025.706 1.726 1.791 1.95 3.015.1 1.12-.469 2.24-.315 3.353.399 2.878 4.98 3.737 5.217 6.622.169 1.926-1.81 3.698-1.258 5.547.299.694.686 1.346 1.15 1.941 1.305 2.164.423 5.141-1.465 6.814-1.887 1.672-4.496 2.263-7.013 2.378-2.117.092-4.526-.253-5.77-1.964-1.143-1.573-.905-3.706-.682-5.632 1.066-8.992.882-18.076.706-27.13"/>
                    <path fill="#FFBE9D" d="M41.647 51.491c.038-4.726 0-9.698 0-9.698s-6.069-1.082-7.243-9.03c-1.112-7.59.767-23.901.767-23.901 8.8-3.476 18.714-2.133 24.875 4.949l-.967 38.363c-.107 4.45-4.028 7.903-8.793 7.75-4.81-.162-8.677-3.914-8.639-8.433z"/>
                    <path fill="#263238" d="M36.829 21.384c-.014.552.415 1.014.966 1.043.262.023.523-.06.723-.23.2-.17.324-.413.344-.675.009-.554-.422-1.015-.975-1.044-.26-.023-.52.06-.72.23-.199.17-.32.414-.338.676z"/>
                    <path fill="#263238" d="M35.194 20.601c.123.13.898-.43 1.995-.414 2.064.299 2.026.614 2.01.437.062-.054-.06-.3-.414-.552-.467-.337-1.028-.52-1.603-.522-.572-.006-1.13.169-1.596.499-.338.253-.453.49-.392.552zM48.046 21.714c-.013.55.416 1.01.967 1.035.261.026.522-.056.722-.227.2-.17.321-.416.337-.678.013-.552-.416-1.015-.967-1.043-.262-.022-.521.063-.72.235-.2.171-.321.415-.339.678z"/>
                    <path fill="#263238" d="M46.619 20.977c.123.138.905-.43 1.995-.414 1.09.015 1.895.575 2.018.445.122-.13-.07-.3-.415-.56-.47-.337-1.033-.516-1.61-.514-.571-.01-1.13.161-1.597.49-.337.292-.452.492-.391.553zM42.545 28.841c-.573-.195-1.169-.311-1.773-.345-.276 0-.544-.092-.59-.284-.017-.29.053-.578.2-.828l.85-2.118c.785-1.8 1.43-3.656 1.927-5.555-.123-.046-1.182 2.37-2.371 5.37-.284.768-.553 1.459-.814 2.134-.183.335-.24.724-.16 1.097.078.204.249.358.46.414.151.047.309.07.468.07.596.09 1.202.106 1.803.045z"/>
                    <path fill="#EB996E" d="M41.64 41.793c3.736.1 7.428-.837 10.664-2.709 0 0-2.639 5.425-10.58 4.604l-.085-1.895zM42.967 31.458c.431-.528 1.103-.797 1.78-.714.511.045.98.304 1.289.714.295.38.322.903.069 1.312-.368.394-.936.53-1.443.345-.514-.19-.986-.479-1.388-.852-.122-.09-.226-.202-.307-.33-.084-.122-.084-.284 0-.406"/>
                    <path fill="#263238" d="M45.767 29.632c-.184 0-.2 1.181-1.227 2.01-1.028.829-2.302.69-2.302.852 0 .16.284.237.813.253.699.024 1.383-.205 1.926-.645.52-.417.857-1.02.944-1.68.053-.499-.077-.798-.154-.79z"/>
                    <path fill="#1E100A" d="M56.593 8.148c-2.9 4.144-10.596 8.402-16.112 9.392.637-.844 4.02-2.931 4.665-3.775-2.494 1.856-6.07 4.358-9.376 4.519-.39.057-.789-.004-1.143-.177-.377-.3-.59-.76-.576-1.243-.188-2.4-.11-4.813.23-7.196.263-2.015 1.287-3.851 2.862-5.133 2.126-1.642 5.156-2.041 8.018-2.11 2.395-.156 4.798.167 7.067.951 2.194.86 4.074 2.57 4.396 4.604"/>
                    <path fill="#1E100A" d="M64.926 26.708c.363-1.752.62-3.525.767-5.309.238-4.097-.944-19.182-15.069-18l-.575 4.304s-2.18 14.724 6.959 14.832c.614 3.287 2.22 6.307 4.603 8.654 0 0 2.394-.069 3.253-4.48"/>
                    <path fill="#FFBE9D" d="M57.03 22.535c.854-.168 1.737-.102 2.556.191.82.31 1.484.93 1.849 1.727.318.814.318 1.718 0 2.532-.329.806-.832 1.529-1.473 2.117-.423.455-.95.8-1.535 1.005-.6.207-1.263.098-1.765-.291"/>
                    <path fill="#EB996E" d="M57.437 27.69c-.1 0 .269.545 1.044.346.421-.134.77-.433.967-.829.24-.43.391-.906.445-1.396.073-.537-.05-1.082-.346-1.535-.242-.384-.652-.631-1.105-.667-.767 0-1.05.521-.966.537.084.015.376-.215.897-.085.66.257 1.03.96.867 1.65-.1.875-.445 1.673-.913 1.864-.468.192-.836.046-.89.116z"/>
                    <path fill="#263238" d="M58.573 6.598c2.278 1.293 5.17.53 6.514-1.718.447-.678.607-1.506.445-2.302-.369-1.058-1.271-1.84-2.37-2.056-1.57-.41-3.239-.01-4.451 1.066-1.192 1.116-1.639 2.816-1.15 4.374.555 1.537 2.024 2.554 3.659 2.532"/>
                    <path fill="#1E100A" d="M59.847 29.494c-.809.536-1.546 1.173-2.195 1.895-.649.734-.987 1.691-.944 2.67.12.529.178 1.07.177 1.611-.233.71-.612 1.363-1.113 1.918-.95 1.743-.662 3.901.714 5.333 1.393 1.37 3.272 2.13 5.225 2.117 1.124.096 2.249-.173 3.207-.767 1.32-.92 1.826-2.655 1.865-4.274"/>
                    <path fill="#455A64" d="M60.813 9.767c-.195.523-.475 1.01-.828 1.443-.78 1.102-1.695 2.102-2.724 2.977-1.021.884-2.147 1.64-3.353 2.248-.477.28-.995.484-1.535.606 1.63-.927 3.185-1.982 4.65-3.154 1.369-1.272 2.636-2.65 3.79-4.12zM62.279 9.683c.022.656-.064 1.312-.253 1.941-.379 1.536-.984 3.008-1.796 4.366-.817 1.354-1.834 2.577-3.015 3.629-.468.461-1.007.845-1.596 1.135 1.64-1.456 3.075-3.129 4.266-4.971 1.074-1.914 1.88-3.967 2.394-6.1zM31.611 16.113c.115 0 .269 1.32.768 2.892.498 1.573 1.028 2.778.92 2.831-1.187-1.665-1.781-3.68-1.688-5.723zM65.455 43.228c.348.228.75.358 1.166.376.483-.007.953-.156 1.35-.43.51-.376.872-.919 1.021-1.535.184-.756.184-1.545 0-2.301-.16-.837-.483-1.696-.767-2.64-.347-.983-.465-2.033-.345-3.069.176-1.12.905-2.033 1.258-3.069.337-.999.257-2.092-.222-3.03-.437-.882-1.187-1.568-2.103-1.926-.45-.169-.89-.36-1.32-.576-.428-.211-.791-.535-1.05-.936-.381-.745-.546-1.583-.476-2.417.051-.65.025-1.304-.077-1.949-.084-.479-.282-.931-.575-1.32-.265-.323-.63-.55-1.036-.644.11-.027.226-.027.337 0 .319.083.605.26.821.507.326.4.557.87.676 1.373.13.659.177 1.332.138 2.003-.054.774.11 1.547.475 2.232.43.706 1.32.998 2.225 1.358 1.002.383 1.824 1.127 2.302 2.087.531 1.033.625 2.235.261 3.338-.399 1.097-1.105 1.972-1.258 2.977-.117.986-.01 1.985.314 2.923.269.92.583 1.803.768 2.67.17.813.147 1.654-.07 2.455-.182.675-.598 1.262-1.173 1.658-.44.286-.958.426-1.481.399-.328-.015-.647-.118-.92-.3-.094-.054-.175-.127-.239-.214zM59.916 42.683s.1.245.468.422c.53.22 1.143.053 1.488-.407.403-.762.356-1.684-.123-2.401-.437-.867-1.304-1.719-1.534-2.985-.127-.624.027-1.272.422-1.772.376-.46.82-.768 1.105-1.144.491-.717.684-1.598.537-2.455-.095-.592-.241-1.175-.438-1.742-.089-.205-.15-.422-.184-.644 0 0 .146.2.323.59.267.559.46 1.15.575 1.758.198.935.013 1.91-.514 2.708-.33.445-.767.768-1.09 1.174-.326.414-.452.95-.345 1.466.184 1.097.998 1.933 1.466 2.877.514.84.514 1.898 0 2.739-.236.306-.59.499-.975.53-.28.033-.564-.02-.813-.154-.384-.276-.384-.568-.368-.56zM29.839 40.665c-.235-.18-.447-.389-.63-.622-.547-.598-.997-1.28-1.334-2.017-.228-.528-.338-1.099-.323-1.673.004-.68.242-1.34.676-1.865.475-.544 1.166-.836 1.58-1.35.407-.572.524-1.301.315-1.972-.188-.71-.469-1.39-.837-2.025-.36-.629-.618-1.31-.767-2.018-.124-.671.016-1.364.391-1.934.336-.455.727-.865 1.167-1.22.634-.46 1.096-1.118 1.312-1.872.052-.279.052-.565 0-.844 0 0 .061.062.115.2.077.213.1.442.069.667-.166.816-.618 1.545-1.274 2.056-.404.354-.767.753-1.082 1.19-.318.504-.428 1.112-.307 1.695.158.667.417 1.307.768 1.896.387.663.684 1.375.882 2.117.23.788.083 1.638-.399 2.302-.522.614-1.212.882-1.611 1.35-.389.455-.608 1.03-.622 1.627-.023.524.063 1.046.254 1.534.3.729.704 1.41 1.197 2.026.177.235.331.487.46.752z"/>
                    <path fill="#0096DC" d="M61.834 7.596c-.548-.744-1.176-1.426-1.872-2.033-.773-.503-1.6-.92-2.463-1.243 2.004.032 3.757 1.357 4.335 3.276z"/>
                    <path fill="#455A64" d="M62.916.253c.046 0 .299.276.506.867.543 1.608.054 3.385-1.235 4.489-.491.406-.86.53-.883.49-.023-.038.284-.26.683-.69 1.08-1.114 1.519-2.701 1.166-4.212-.106-.307-.186-.623-.237-.944z"/>
                    <path fill="#000" d="M23.977 94.634s19.066 18.108 30.399 14.824c11.332-3.284 14.678-11.778 14.678-11.778l.276-3.069-1.136-.767-43.642-3.483-.575 4.273z" opacity=".3"/>
                    <path fill="#EB996E" d="M12.706 77.678l3.675-9.392 13.174 8.28-11.74 18.099s-4.772-6.23-5.11-16.987z"/>
                    <path fill="#0096DC" d="M27.568 51.637c6.138-3.207 14.071-4.128 14.071-4.128 2.302 4.604 9.568 5.194 13.965 2.049l3.713-2.51c.513-.007 1.025.016 1.535.07 8.696.816 15.83 7.235 17.555 15.798.732 3.271 1.044 6.623.928 9.974-.483 8.386-9.161 9.146-9.161 9.146s-.445 8.279-1.036 14.977c-.26 4.76-3.202 8.958-7.588 10.826-3.04 1.52-6.308 2.528-9.675 2.985-10.674 1.67-21.48-2.067-28.842-9.975 1.32-7.98 2.578-18.314 2.486-18.783-.015-.05-.015-.103 0-.153l-8.6-7.634-4.88-4.097S22.78 54.299 27.551 51.69"/>
                    <path fill="#FAFAFA" d="M38.233 56.777c-.65-.368-1.38-.571-2.126-.59-.797-.002-1.571.269-2.194.767-.354.325-.682.676-.982 1.051-.342.459-.833.784-1.389.92-.575.073-1.155-.081-1.619-.429-.445-.284-.82-.59-1.212-.813-.681-.4-1.507-.474-2.248-.2-.513.175-.967.488-1.312.906-.238.299-.322.498-.36.483.028-.209.11-.407.237-.575.322-.49.789-.865 1.335-1.074.82-.351 1.756-.3 2.532.138.43.23.813.544 1.235.805.385.29.865.421 1.343.369.465-.12.878-.39 1.174-.768.311-.39.658-.749 1.036-1.074.692-.534 1.55-.806 2.424-.767.578.02 1.141.18 1.642.468.353.215.5.383.484.383zM46.972 68.286c-.496-.56-1.123-.987-1.826-1.243-.746-.255-1.556-.255-2.302 0-.435.199-.855.427-1.258.683-.472.324-1.041.475-1.612.43-.568-.116-1.07-.449-1.396-.928-.33-.407-.59-.821-.89-1.159-.517-.596-1.275-.928-2.064-.905-.541.005-1.072.156-1.534.437-.323.207-.469.368-.5.345-.03-.023.1-.215.415-.475 1.216-.914 2.924-.761 3.96.353.33.36.598.767.912 1.158.277.388.686.662 1.151.767.484.026.963-.106 1.366-.376.42-.27.864-.502 1.327-.69.83-.284 1.734-.26 2.548.069.544.199 1.03.531 1.411.967.23.314.307.521.292.567zM66.391 51.483c-.712-.22-1.468-.266-2.202-.13-.78.166-1.482.594-1.987 1.212-.272.391-.516.802-.729 1.228-.24.523-.651.948-1.166 1.204-.548.183-1.146.153-1.673-.084-.49-.184-.928-.407-1.358-.545-.753-.243-1.575-.136-2.24.292-.46.281-.837.681-1.09 1.158-.169.338-.215.56-.245.553-.03-.008 0-.23.107-.622.576-1.408 2.123-2.154 3.583-1.726.468.138.913.353 1.374.522.435.204.933.231 1.388.076.432-.221.777-.58.983-1.02.217-.444.474-.868.767-1.266.567-.668 1.353-1.114 2.217-1.258.569-.106 1.155-.067 1.704.115.21.047.406.147.567.291zM57.43 64.066c-.382-.422-.85-.757-1.374-.982-.564-.22-1.187-.239-1.764-.053-.343.131-.674.29-.99.475-.385.239-.84.339-1.29.284-.443-.108-.827-.382-1.073-.767-.238-.33-.422-.66-.637-.928-.37-.475-.933-.757-1.535-.768-.567.004-1.12.177-1.588.5 0 0 .077-.17.322-.362.971-.679 2.3-.51 3.07.392.245.291.444.621.667.92.19.308.488.533.836.63.706.122 1.35-.514 2.087-.722.659-.191 1.364-.14 1.987.146 1.082.484 1.328 1.25 1.282 1.235zM37.673 74.67c-.386-.421-.857-.756-1.381-.982-.568-.212-1.19-.223-1.765-.03-.342.132-.673.291-.99.475-.39.248-.854.351-1.312.292-.44-.11-.822-.385-1.066-.768-.246-.33-.43-.66-.637-.92-.371-.473-.934-.754-1.535-.768-.568 0-1.122.174-1.588.499 0 0 .069-.169.322-.36.367-.27.81-.418 1.266-.423.7-.026 1.372.274 1.819.814.245.291.437.621.667.92.186.308.483.533.829.63.706.122 1.358-.514 2.094-.722.656-.192 1.36-.14 1.98.146 1.09.445 1.335 1.212 1.297 1.197zM56.14 74.916c-.494-.287-1.048-.456-1.618-.491-.606-.023-1.2.161-1.688.521-.276.235-.533.492-.768.768-.288.348-.685.589-1.127.682-.458.034-.91-.109-1.266-.399-.338-.23-.614-.483-.906-.667-.503-.324-1.125-.406-1.695-.223-.537.19-1.004.534-1.343.99 0 0 0-.184.192-.452.263-.373.636-.655 1.066-.806.652-.252 1.385-.184 1.98.184.322.192.614.445.928.652.276.231.63.347.99.322.706-.107 1.112-.92 1.742-1.358.561-.392 1.244-.571 1.925-.506.621.006 1.206.294 1.589.783zM50.04 83.34c-.498-.277-1.05-.444-1.618-.49-.608-.022-1.205.161-1.696.52-.274.237-.53.494-.767.768-.287.35-.685.59-1.128.683-.456.033-.908-.107-1.266-.391-.337-.238-.614-.491-.905-.668-.501-.33-1.125-.414-1.696-.23-.538.186-1.006.531-1.343.99.018-.166.081-.323.185-.453.702-.978 2.04-1.25 3.069-.621.33.191.621.445.936.652.276.23.63.346.99.322.705-.107 1.112-.92 1.741-1.358.563-.39 1.245-.569 1.926-.506.615.013 1.191.3 1.573.782zM37.159 104.256c-.393-.417-.869-.746-1.397-.967-.57-.201-1.194-.201-1.765 0-.34.14-.668.307-.982.499-.38.241-.833.344-1.281.291-.447-.105-.835-.38-1.082-.767-.245-.322-.437-.652-.652-.913-.373-.47-.935-.75-1.535-.767-.569.008-1.121.193-1.58.53 0 0 .069-.177.314-.377.368-.27.81-.42 1.266-.43.695-.04 1.37.243 1.827.768.245.291.445.621.675.913.192.305.494.524.844.614.706.115 1.342-.53 2.079-.768.656-.197 1.36-.154 1.987.123 1.06.499 1.32 1.258 1.282 1.25zM52.235 108.706c-.488-.287-1.032-.465-1.596-.522-.605-.03-1.202.147-1.695.499-.277.234-.533.49-.768.767-.292.342-.693.575-1.135.66-.456.033-.908-.113-1.258-.407-.338-.238-.614-.498-.898-.683-.5-.332-1.121-.425-1.696-.253-.537.182-1.008.522-1.35.975 0 0 0-.184.192-.445.272-.359.646-.626 1.074-.768.658-.232 1.386-.153 1.98.215.322.2.613.453.92.668.277.231.63.352.99.337.706-.107 1.128-.905 1.757-1.335.568-.382 1.252-.553 1.933-.483.606.018 1.172.302 1.55.775z"/>
                    <path fill="#263238" d="M2.547 45.269c.46.544 17.333 23.102 17.333 23.102l-2.371 1.35L.192 47.471l2.355-2.202z"/>
                    <path fill="#FFBE9D" d="M68.386 61.381s-15.82 27.292-16.88 27.79c-2.11.99-26.386-19.995-28.703-21.997-.315-.43-.974-1.327-2.302-3.115 0 0-1.91-8.77-3.959-8.095-2.048.675 1.12 4.458-.207 7.788-1.327 3.33-7.427-4.604-7.673-5.325l-1.534-2.056S5.478 61.043 5.593 63c.353 6.253 6.269 13.688 6.269 13.688s24.046 30.123 42.245 31.143c5.24.3 15.254-14.793 21.484-25.949 3.76-6.736 2.01-13.573-4.22-18.122l-2.985-2.379z"/>
                    <path fill="#EB996E" d="M8.563 64.066c-1.039-1.383-1.819-2.942-2.302-4.603.061 0 .514 1.036 1.15 2.302.638 1.266 1.205 2.27 1.152 2.301z"/>
                    <path fill="#0096DC" d="M67.642 53.754c-.622.376-15.345 27.691-15.345 27.691L71.24 96.276c2.896-7.193 5.406-14.536 7.52-21.997.705-2.678.345-9.837-.653-12.599-1.411-3.92-3.544-2.946-6.744-5.24l-3.721-2.686z"/>
                    <g fill="#000" opacity=".7">
                        <path d="M22.458 1.58s-.184-.107-.537-.283c-.514-.262-1.09-.381-1.665-.346-.909.086-1.77.444-2.47 1.029-.939.75-1.76 1.634-2.44 2.624-.834 1.237-1.603 2.518-2.303 3.836-.767 1.389-1.641 2.877-2.531 4.442-1.788 3.123-3.76 6.56-5.816 10.167-1.266 2.186-2.486 4.312-3.637 6.306l-.046-.245 12.813 10.128 3.721 2.985.982.813c.12.088.231.188.33.299-.13-.069-.254-.151-.368-.245l-1.028-.768-3.79-2.9L.775 29.448l-.138-.108.13-.184c1.151-1.995 2.371-4.12 3.622-6.315 2.071-3.598 4.05-7.02 5.846-10.143l2.563-4.427c.7-1.318 1.467-2.599 2.302-3.836.712-1.017 1.576-1.917 2.562-2.67.743-.591 1.647-.944 2.594-1.013.6-.022 1.194.13 1.71.437.135.075.263.16.384.253.077.093.115.13.108.139z" transform="translate(51.407 52.174)"/>
                    </g>
                    <path fill="#FAFAFA" d="M68.21 79.366c-.38-.426-.849-.761-1.374-.982-.564-.22-1.186-.24-1.764-.062-.343.135-.674.296-.99.484-.387.234-.84.334-1.29.284-.443-.108-.827-.383-1.073-.768-.238-.33-.422-.66-.637-.928-.37-.475-.933-.757-1.535-.767-.567.003-1.12.177-1.588.498 0 0 .077-.168.322-.368.374-.261.818-.405 1.274-.414.698-.027 1.367.274 1.81.813.246.292.446.621.668.92.192.306.49.53.837.63.705.123 1.35-.514 2.087-.721.657-.194 1.362-.145 1.987.138 1.066.483 1.342 1.25 1.266 1.243zM76.864 75.836c-.244-.519-.607-.973-1.058-1.327-.486-.359-1.077-.545-1.68-.53-.365.043-.727.11-1.083.2-.436.123-.9.096-1.32-.077-.397-.229-.691-.602-.82-1.043-.138-.384-.23-.767-.36-1.059-.231-.555-.699-.978-1.274-1.15-.548-.15-1.128-.132-1.665.053 0 0 .115-.146.406-.261.427-.162.895-.184 1.335-.061.682.162 1.25.633 1.535 1.273.153.345.253.714.391 1.067.099.345.327.64.637.82.644.315 1.435-.122 2.202-.13.684 0 1.346.238 1.872.675.515.356.84.926.882 1.55zM77.31 64.542c-.249-.514-.61-.966-1.06-1.32-.483-.362-1.076-.548-1.68-.529-.365.035-.727.102-1.082.2-.436.124-.902.094-1.32-.085-.395-.228-.689-.598-.82-1.036-.138-.383-.23-.767-.36-1.066-.236-.552-.702-.972-1.274-1.151-.548-.15-1.128-.131-1.665.054 0 0 .115-.138.406-.261.428-.159.895-.18 1.335-.062.679.17 1.243.639 1.535 1.274.153.345.253.721.391 1.067.099.347.326.644.637.828.644.307 1.435-.13 2.202-.13.685-.008 1.35.231 1.872.675.512.355.836.921.882 1.542zM73.12 90.537c-.252-.512-.613-.963-1.059-1.32-.486-.363-1.081-.55-1.688-.529-.363.035-.722.101-1.074.2-.436.122-.9.095-1.32-.077-.394-.233-.687-.605-.82-1.044-.146-.383-.23-.767-.369-1.066-.232-.551-.695-.972-1.266-1.151-.547-.155-1.13-.134-1.665.061 0 0 .115-.146.407-.268 1.124-.398 2.366.128 2.862 1.212.161.345.26.721.399 1.066.098.346.322.642.629.83.652.306 1.442-.131 2.21-.131.685-.009 1.35.231 1.872.675.512.355.836.921.882 1.542z"/>
                </g>
            </g>
        </g>
    </g>
</svg>
