<svg xmlns="http://www.w3.org/2000/svg" width="289" height="211" viewBox="0 0 289 211">
    <defs>
        <linearGradient id="70b9daikba" x1="49.995%" x2="49.995%" y1="100.003%" y2="0%">
            <stop offset="0%" stop-color="gray" stop-opacity=".25"/>
            <stop offset="54%" stop-color="gray" stop-opacity=".12"/>
            <stop offset="100%" stop-color="gray" stop-opacity=".1"/>
        </linearGradient>
        <linearGradient id="bymqkatxjb" x1="49.985%" x2="49.985%" y1="100%" y2=".005%">
            <stop offset="0%" stop-color="gray" stop-opacity=".25"/>
            <stop offset="54%" stop-color="gray" stop-opacity=".12"/>
            <stop offset="100%" stop-color="gray" stop-opacity=".1"/>
        </linearGradient>
    </defs>
    <g fill="none" fillRule="evenodd">
        <g>
            <g>
                <g transform="translate(-576 -223) translate(458 168) translate(118 55)">
                    <ellipse cx="103.935" cy="206.591" fill="#2877C9" fillRule="nonzero" opacity=".1" rx="24.381" ry="3.916"/>
                    <ellipse cx="236.467" cy="206.701" fill="#2877C9" fillRule="nonzero" opacity=".1" rx="30.424" ry="3.916"/>
                    <path fill="#2877C9" fillRule="nonzero" d="M15.473 99.386h25.395v34.613H17.333c-.063.355-.123.713-.188 1.07h23.723v27.915c-.043-.013-.08-.028-.12-.043-.67-.265-1.336-.545-2.002-.846l-.425-.192c-.668-.316-1.335-.65-2.002-1.001-.233-.123-.465-.25-.696-.38-3.704-2.076-7.069-4.705-9.978-7.797-.085-.083-.165-.17-.25-.25-.406-.44-.804-.886-1.189-1.342l-.425-.5c-.456-.558-.896-1.131-1.324-1.712-.063-.085-.123-.17-.188-.25-1.74-2.413-3.185-5.025-4.303-7.782-.035-.082-.066-.172-.098-.25-.344-.884-.648-1.776-.913-2.677-.115-.378-.226-.75-.32-1.144-.036-.115-.066-.227-.093-.34-1.421-5.547-1.59-11.31-1.59-17.032v-2.002c0-2.314.028-4.644.069-6.97 0-.604.025-1.204.037-1.81.035-1.536.085-3.073.15-4.609.015-.428.035-.853.058-1.279 0-.245.012-.49.037-.735.06-.89.11-1.774.17-2.655zM40.868 60.848h-13.93c2.265-3.544 4.739-6.95 7.41-10.2 2.069-2.541 4.253-5.018 6.52-7.406v17.606zM40.868 61.919v36.396H15.553c0-.105.018-.213.025-.318l.07-.86c.028-.336.058-.673.09-1.001.033-.328.068-.728.106-1.091.037-.363.072-.73.115-1.094.042-.362.08-.725.125-1.086.045-.36.085-.725.133-1.086.037-.3.077-.598.117-.898.058-.423.118-.848.183-1.268 0-.063.017-.128.027-.188.457-3.077 1.08-6.128 1.864-9.138.822-3.158 1.872-6.252 3.14-9.258 1.35-3.145 2.928-6.186 4.725-9.098l14.595-.012zM46.93 99.384v34.615h54.24V99.384H46.93zm0 35.683v29.726c.31.065.619.127.924.18.415.08.828.152 1.251.215.08.013.163.025.25.033.165.027.336.05.5.072.419.058.834.105 1.252.143.197.02.398.037.598.052l.483.038c.262.02.523.035.78.042.16 0 .32.015.486.02h1.784c.215 0 .43 0 .643-.02h.015c.148 0 .298 0 .448-.02.041.003.083.003.125 0 .125 0 .25 0 .37-.017h.088l.838-.065c.275-.025.553-.058.833-.088l.57-.067c2.322-.326 4.617-.814 6.87-1.462 5.059-1.41 10.008-3.385 15.065-4.831 6.538-1.864 13.762-2.78 20.08-.5v-23.451H46.93zm54.24-74.22V14.766c-5.938-.064-11.86.63-17.623 2.067-13.734 3.45-26.057 10.935-36.616 20.493v23.52h2.722v1.069h-2.722v36.401h54.24V61.916H60.83v-1.068h40.34zm69.668-15.565c-3.398-.12-6.776-1.196-9.831-2.858-5.843-3.178-10.51-8.084-15.724-12.225-10.834-8.625-24.27-13.83-38.055-15.12v45.769h77.43l.192-.203-14.012-15.363zm7.054-1.251l7.478 8.207v-10.36c-2.504.311-4.699 1.05-7.468 2.143l-.01.01zm7.478 128.143v-37.107h-15.936c-.042-.158-.085-.318-.135-.478.048.16.088.32.133.478h-62.194v26.836c.59.438 1.173.898 1.751 1.366.623.5 1.239 1.028 1.857 1.546l.623.516c.298.25.598.5.9.735.601.487 1.208.968 1.82 1.442.303.25.613.475.92.71 4.887 3.736 10.04 7.107 15.422 10.086 1.206.668 2.422 1.319 3.65 1.955.818.417 1.642.833 2.467 1.236 1.241.605 2.492 1.189 3.754 1.751 11.626 5.22 23.92 8.8 36.531 10.642 2.8.414 5.613.739 8.435.976v-22.692h.25l-.248.002zM107.238 61.916v36.4h78.143v-36.4h-78.143zm0 37.468v34.615h78.143V99.384h-78.143zm84.208-57.55v11.555l9.546-10.474c-3.163-.51-6.345-.875-9.546-1.094v.013zm0 57.562V134h76.003V99.384l-76.003.012zm75.725 75.525l.268-39.854h-75.993v60.195c4.895.205 9.798.147 14.687-.176h.086c2.335-.146 4.66-.36 6.973-.64h.053c12.343-1.437 24.412-4.657 35.83-9.56m33.03-79.803c-.286-.673-.584-1.34-.887-2.001-.565-1.251-1.163-2.467-1.779-3.683h-5.93v34.6h14.993c-.007-9.799-2.487-19.808-6.39-28.928l-.008.012zm-8.596 29.996v34.28c4.224-4.048 7.792-8.68 10.362-13.974 3.09-6.376 4.504-13.28 4.619-20.31l-14.98.004zm0-45.77v9.009h5.375c-1.626-3.101-3.418-6.112-5.367-9.02l-.008.012zm-51.544-40.684c-.396-.15-.791-.303-1.189-.45-4.196-1.55-8.483-2.839-12.838-3.86L193.33 60.348l-.28.298.187.205h51.99c-7.24-4.984-15.047-9.092-23.255-12.238l-.007.013zm24.786 13.304h-54.24l-1.065.975v35.411h76.013V81.163c-6.03-7.293-12.989-13.763-20.7-19.247l-.008.013z" opacity=".1"/>
                    <path fill="#2877C9" fillRule="nonzero" d="M40.868 80.277v18.038H15.553c0-.105.018-.213.025-.318l.07-.86c.028-.336.058-.673.09-1.001.033-.328.068-.728.106-1.091.037-.363.072-.73.115-1.094.042-.362.08-.725.125-1.086.045-.36.085-.725.133-1.086.037-.3.077-.598.117-.898.058-.423.118-.848.183-1.268 0-.063.017-.128.027-.188.457-3.077 1.08-6.128 1.864-9.138l22.46-.01zM15.473 99.386h25.395v34.613H17.333c-.063.355-.123.713-.188 1.07h23.723v27.915c-.043-.013-.08-.028-.12-.043-.67-.265-1.336-.545-2.002-.846l-.425-.192c-.668-.316-1.335-.65-2.002-1.001-.233-.123-.465-.25-.696-.38-3.704-2.076-7.069-4.705-9.978-7.797-.085-.083-.165-.17-.25-.25-.406-.44-.804-.886-1.189-1.342l-.425-.5c-.456-.558-.896-1.131-1.324-1.712-.063-.085-.123-.17-.188-.25-1.74-2.413-3.185-5.025-4.303-7.782-.035-.082-.066-.172-.098-.25-.344-.884-.648-1.776-.913-2.677-.115-.378-.226-.75-.32-1.144-.036-.115-.066-.227-.093-.34-1.421-5.547-1.59-11.31-1.59-17.032v-2.002c0-2.314.028-4.644.069-6.97 0-.604.025-1.204.037-1.81.035-1.536.085-3.073.15-4.609.015-.428.035-.853.058-1.279 0-.245.012-.49.037-.735.06-.89.11-1.774.17-2.655zM66.025 67.128L66.025 98.315 46.931 98.315 46.931 67.128 49.653 67.128 49.653 56.569 60.828 56.569 60.828 67.128zM46.933 99.384H66.025V133.996H46.933zM46.93 135.07h19.095v28.774c-2.253.648-4.548 1.135-6.869 1.46l-.57.07c-.28.032-.558.06-.833.087-.276.027-.561.047-.839.065h-.087c-.12 0-.25.015-.368.017h-.128c-.15 0-.3.015-.45.02-.213.013-.425.015-.643.018h-1.772l-.483-.018c-.25 0-.52-.027-.78-.045l-.48-.035-.599-.055c-.42-.037-.838-.085-1.25-.142l-.501-.07-.25-.035c-.418-.066-.831-.136-1.252-.216-.307-.052-.613-.117-.923-.18l-.017-29.716zM169.637 63.445H185.381V98.313H169.637zM185.383 99.384L185.383 133.999 107.238 133.999 107.238 119.068 148.861 119.068 148.861 127.876 169.637 127.876 169.637 99.384zM185.63 172.182h-.25v22.707c-2.819-.239-5.63-.563-8.432-.974-12.617-1.847-24.916-5.436-36.546-10.664-3.358-1.511-6.648-3.16-9.869-4.95-5.38-2.98-10.535-6.351-15.423-10.085-1.228-.941-2.44-1.904-3.636-2.888-.828-.683-1.651-1.384-2.485-2.064-.578-.468-1.16-.928-1.751-1.369V135.07h62.191c-.042-.16-.085-.32-.13-.477.048.157.093.317.135.477h15.947v37.098c.085.002.167.01.25.015zM226.441 60.848h-10.259V57.66h4.6v-9.496c.398.145.795.295 1.19.448v9.048h4.47v3.188zM251.157 98.315h-50.363l.017.013-.022-.013h-9.343V63.447h2.647V89.22h12.098V73.957h9.994V61.919h10.259v12.048h9.993V89.23h14.72v9.085zM191.446 99.384v34.615h59.711V99.384h-59.711zm75.92 75.36l.083-27.399h-16.292v-12.26h-59.711v60.177c4.895.205 9.798.147 14.687-.176h.086c2.335-.146 4.66-.36 6.973-.64h.053c12.343-1.437 24.412-4.657 35.83-9.56M274.57 135.07h13.93c-.123 7.028-1.534 13.932-4.622 20.307-2.57 5.297-6.14 9.929-10.359 13.975v-22.02h1.051V135.07zM288.507 133.999H274.57V105.07h7.542c3.903 9.12 6.383 19.129 6.395 28.928z" opacity=".1"/>
                    <path fill="#2877C9" fillRule="nonzero" d="M176.948 73.138H185.383V84.07000000000001H176.948zM176.948 95.798H185.383V98.315H176.948zM176.948 99.384H185.383V106.728H176.948zM176.948 118.458H185.383V129.39H176.948zM176.948 141.117H185.383V152.04899999999998H176.948zM185.38 172.167c.086 0 .168 0 .25.015h-.25v2.54h-8.432v-10.945h8.433v8.39zM185.38 186.431v8.445c-2.819-.238-5.63-.563-8.432-.973v-7.472h8.433zM107.238 133.195H143.387V134.195H107.238zM107.238 135.067H143.387V138.145H107.238zM107.238 148.233H143.387V153.18200000000002H107.238zM143.384 163.271v4.95H115.11c-1.228-.938-2.44-1.9-3.638-2.888-.829-.683-1.65-1.384-2.485-2.062h34.397zM143.384 178.307v4.944H140.4c-3.355-1.513-6.643-3.163-9.866-4.952l12.851.008zM206.136 102.739H213.252V109.855H206.136zM52.058 69.583H59.174V76.699H52.058zM52.058 86.112H59.174V93.228H52.058zM52.058 102.641H59.174V109.757H52.058zM52.058 119.168H59.174V126.284H52.058zM52.058 135.697H59.174V142.813H52.058zM52.058 152.227H59.174V159.34300000000002H52.058zM233.302 102.739H240.418V109.855H233.302zM206.136 120.292H213.252V127.408H206.136zM233.302 120.292H240.418V127.408H233.302zM206.136 137.842H213.252V144.95800000000003H206.136zM233.302 137.842H240.418V144.95800000000003H233.302zM206.136 155.395H213.252V162.51100000000002H206.136zM233.302 155.395H240.418V162.51100000000002H233.302zM206.136 172.947H213.252V180.063H206.136zM233.302 172.947H240.418V180.063H233.302zM206.136 195.086L206.136 190.497 213.25 190.497 213.25 194.433zM16.514 89.42v4.07h24.354v-4.07H16.514zm2.427 3.816h-1.986V89.67h2.001l-.015 3.566zm2.425 0h-2.002V89.67h2.002v3.566zm2.42 0h-2.002V89.67h2.002v3.566zm2.424 0h-1.999V89.67h2.002l-.003 3.566zm2.422 0h-2.001V89.67h2.001v3.566zm2.425 0h-2.002V89.67h2.002v3.566zm2.424 0H31.48V89.67h2.001v3.566zm2.423 0h-2.002V89.67h2.002v3.566zm2.422 0h-2.002V89.67h2.002v3.566zm2.422 0h-2.002V89.67h2.002v3.566zM16.514 101.265v4.071h24.354v-4.07H16.514zm2.427 3.813h-1.986v-3.555h2.001l-.015 3.555zm2.425 0h-2.002v-3.555h2.002v3.555zm2.42 0h-2.002v-3.555h2.002v3.555zm2.424 0h-1.999v-3.555h2.002l-.003 3.555zm2.422 0h-2.001v-3.555h2.001v3.555zm2.425 0h-2.002v-3.555h2.002v3.555zm2.424 0H31.48v-3.555h2.001v3.555zm2.423 0h-2.002v-3.555h2.002v3.555zm2.422 0h-2.002v-3.555h2.002v3.555zm2.422 0h-2.002v-3.555h2.002v3.555zM16.514 113.115v4.079h24.354v-4.079H16.514zm2.427 3.814h-1.986v-3.558h2.001l-.015 3.558zm2.425 0h-2.002v-3.558h2.002v3.558zm2.42 0h-2.002v-3.558h2.002v3.558zm2.424 0h-1.999v-3.558h2.002l-.003 3.558zm2.422 0h-2.001v-3.558h2.001v3.558zm2.425 0h-2.002v-3.558h2.002v3.558zm2.424 0H31.48v-3.558h2.001v3.558zm2.423 0h-2.002v-3.558h2.002v3.558zm2.422 0h-2.002v-3.558h2.002v3.558zm2.422 0h-2.002v-3.558h2.002v3.558zM16.514 124.966v4.066h24.354v-4.066H16.514zm2.427 3.813h-1.986v-3.56h2.001l-.015 3.56zm2.425 0h-2.002v-3.56h2.002v3.56zm2.42 0h-2.002v-3.56h2.002v3.56zm2.424 0h-1.999v-3.56h2.002l-.003 3.56zm2.422 0h-2.001v-3.56h2.001v3.56zm2.425 0h-2.002v-3.56h2.002v3.56zm2.424 0H31.48v-3.56h2.001v3.56zm2.423 0h-2.002v-3.56h2.002v3.56zm2.422 0h-2.002v-3.56h2.002v3.56zm2.422 0h-2.002v-3.56h2.002v3.56zM16.62 136.813c.097.383.207.766.322 1.144v-.888h2.002v3.558h-1.071c.033.082.065.172.098.25h22.897v-4.064H16.619zm4.754 3.814h-2.002v-3.558h2.002v3.558zm2.42 0H21.79v-3.558h2.002v3.558zm2.424 0H24.21v-3.558h2.002l.005 3.558zm2.422 0h-2.002v-3.558h2.002v3.558zm2.424 0h-2.001v-3.558h2.001v3.558zm2.425 0h-2.002v-3.558h2.002v3.558zm2.422 0H33.91v-3.558h2.002v3.558zm2.422 0h-2.002v-3.558h2.002v3.558zm2.422 0h-2.001v-3.558h2.001v3.558zM22.274 148.664c.063.08.123.17.188.25h1.324v1.709c.142.17.282.34.427.5v-2.22h2.002v3.572h-.81c.08.082.157.17.25.25h15.22v-4.061h-18.6zm6.358 3.81h-2.001v-3.555h2.001v3.556zm2.425 0h-2.002v-3.555h2.002v3.556zm2.424 0H31.48v-3.555h2.001v3.556zm2.423 0h-2.002v-3.555h2.002v3.556zm2.422 0h-2.002v-3.555h2.002v3.556zm2.422 0h-2.002v-3.555h2.002v3.556zM35.633 160.511c.228.13.46.25.696.38v-.124h2.002v1.126l.425.197v-1.323h2.002v2.164c.038.02.078.034.12.045v-2.465h-5.245zM185.38 172.164h.25-.25zM169.3 134.59c.047.16.087.32.132.478-.04-.158-.083-.318-.133-.478zM49.662 60.84v1.069H60.84V60.84H49.663zm135.718 111.324h.25-.25zm-16.082-37.575c.048.16.088.32.133.478-.04-.158-.083-.318-.133-.478zm16.082 37.568h.25-.25zm-16.082-37.568c.048.16.088.32.133.478-.04-.158-.083-.318-.133-.478z" opacity=".1"/>
                    <path fill="url(#70b9daikba)" fillRule="nonzero" d="M127.51 109.763s-.985-.138-.985-1.574c0-1.437-.706-4.119-.706-4.119 0-.012-.61-4.671-1.454-5.412-.843-.74-1.926-5.09-1.926-5.09s-.186-2.359-.563-2.867c-.378-.508-.889-1.751-1.642-3.526-.753-1.774-3.893-3.002-3.893-3.002s-5.678-3.293-7.287-4.366c-.146-.089-.283-.192-.407-.308-.28-.368-1.502-.375-1.502-.375-.127-.806-.25-1.732-.29-2.57 0-.09 0-.18-.012-.27 1.794-1.06 3.145-2.733 3.805-4.71.03-.095.055-.195.083-.29.217-.071.394-.231.488-.44.145-.323.147-.7.328-1.001.21-.355.61-.546.925-.813.796-.676 1.001-1.814.964-2.85-.025-.838-.16-1.684-.108-2.517l.015-.21c.015-.126.033-.25.055-.37.123-.621.39-1.207.54-1.822.15-.616.166-1.31-.185-1.84-.512-.778-1.58-.933-2.52-1.013-1.063-.09-2.013.028-2.694-.856-.319-.461-.677-.894-1.071-1.293-.14-.13-1.501-.961-1.501-1.016-1.329-.615-2.835-.731-4.241-.325-.706.205-1.372.54-2.087.708-1.544.365-3.32-.03-4.632.853-.73.5-1.168 1.296-1.579 2.072-.333.639-.672 1.277-1.015 1.914-.553 1.048-1.116 2.114-1.35 3.275-.048.253-.078.509-.09.766V64.914c0 .087 0 .172.016.25.015.077.012.103.02.155.007.053.02.17.035.25.015.08.045.22.075.33.012.048.03.093.045.138.025.085.055.168.088.25.017.043.035.088.055.13.037.088.082.173.127.25.02.036.035.068.055.1.07.117.147.23.23.336.536.668 1.324 1.094 1.907 1.72V69.101c.063 2.833 1.522 5.45 3.898 6.994 0 .095.013.193.018.288.049.742.04 1.488-.028 2.23-.206-.244-.512-.38-.83-.371-.108-.006-.216.004-.32.027l-.023-.017v.022c-.55.135-1.229.708-1.877 2.337 0 0-1.971 2.222-3.473 2.13-1.501-.093-5.302 2.312-5.302 2.312s-3.708 2.407-4.504 4.859c-.444 1.39-.978 2.75-1.596 4.073l-4.584 9.446-.846 7.494s.468 3.333.376 3.84c-.093.509 1.924 5.09 1.924 5.09s6.663 11.708 9.385 12.308l.195-.137c.117.06.24.107.368.137l.56-.395c.034.44.02.884-.042 1.321-.375 1.156.14 8.7.796 10.179.656 1.479.423 20.868.423 20.868l-.093 1.712s0 .055.023.15l-.023.405.068.035c.07.543.047 1.094-.068 1.629-.235.75-.33 2.872-.33 2.872s-1.874 11.98-.986 14.388c.888 2.407 1.644 5.044 1.644 5.044s.938 3.003.045 3.516c-.893.513-3.433 1.374-2.91 2.625.475 1.156 2.28 4.253 2.547 4.706l-.022.238-.368 3.986c.06.526.202 1.04.423 1.521.403.868 1.186 1.77 2.675 1.672.25-.018.54-.048.82-.085 2.725-.366 6.08-1.582 6.08-1.582-.174-.11-.333-.242-.475-.393-.27-.262-.422-.624-.418-1 .04-.726-1.318-4.184-1.656-5.035-.053-.122-.08-.193-.08-.193s3.097-3.237 2.582-6.107c0 0-3.428-2.002-2.3-3.1 1.129-1.099 3.146-4.254 3.146-4.254s.092-11.798 0-13.56c-.097-1.222-.039-2.452.172-3.66.038-.183.083-.36.13-.536 1.561.233 3.137.353 4.715.358.575 0 1.16 0 1.751-.035 0 .167.008.347.023.54.13 2.923.372 8.048.57 9.952.28 2.73 1.83 10.086 1.83 10.086s-2.956 1.897.515 6.57c0 0 0 1.695-.23 1.94-.246.802-.444 1.617-.594 2.442-.145.88-.205 1.772.03 2.234.563 1.106 3.941 1.016 3.941 1.016l.083-.015c1.288-.133 2.576.256 3.576 1.079 1.283 1.03 6.155.578 8.792.25 1.034-.13 1.724-.25 1.724-.25.034-.117.046-.24.035-.36-.027-.649-.535-2.07-3.978-3.338 0 0-3.238-2.177-3.193-4.074h-.443c.273-.015.448 0 .448 0s-1.269-4.629-.75-5.004c.517-.376-1.034-5.505-1.034-5.505s-.888-8.608-.936-9.21c.002-.518.08-1.032.233-1.527l-.233-4.719s-.045-1.569 0-2.08c-.007-.442-.043-.884-.107-1.323l-.07-.538c1.213-.308 2.001-.593 2.001-.593l-.14-16.427c1.031-2.001 1.221-6.393 1.216-9.508 0-2.002-.09-3.483-.09-3.483l1.409-2.3s.325-2.752-.19-3.355c-.228-.272-.125-.555.062-.788.098-.077.2-.147.308-.21 0 0-.015-.023-.033-.055.099-.082.203-.157.313-.223 0 0-.5-.776-.052-1.103.42.285.795.5 1.08.675-.02.183-.04.288-.04.288l.12-.25.444.25s2.206-4.396 2.159-5.044c-.048-.648 1.501-3.378 1.501-3.378s.188-1.434 1.034-2.035c.845-.6.655-4.951.655-4.951s.235-2.267.798-3.193c.563-.926-.513-2.174-.513-2.174zm-42.226-1.93l.042 1.049-.43-.693.388-.356z"/>
                    <path fill="#FFF" fillRule="nonzero" d="M121.996 128.639l-.54 2.302s-4.33-2.21-5.11-5.017c-.78-2.807 1.306-3.873 1.306-3.873l4.033 1.709.31 4.879z"/>
                    <path fill="#000" fillRule="nonzero" d="M121.996 128.639l-.54 2.302s-4.33-2.21-5.11-5.017c-.78-2.807 1.306-3.873 1.306-3.873l4.033 1.709.31 4.879z" opacity=".1"/>
                    <path fill="#FFF" fillRule="nonzero" d="M97.702 206.984s-4.003 1.471-6.756 1.657c-1.461.097-2.23-.799-2.625-1.662-.216-.48-.355-.99-.412-1.514l.357-3.966.19-2.111 5.848-1.52.828 2.533.078.193c.333.845 1.666 4.286 1.626 5.004-.003.372.145.728.41.988.135.152.288.285.456.398zM125.048 204.967c.01.12-.002.242-.035.358 0 0-8.562 1.429-10.314 0-.998-.844-2.307-1.227-3.603-1.056 0 0-3.313.09-3.866-1-.23-.458-.17-1.347-.027-2.222.145-.821.34-1.632.58-2.43l.133-.105.788-.633 9.228-.273h.07c-.045 1.887 3.133 4.051 3.133 4.051 3.375 1.251 3.873 2.665 3.913 3.31z"/>
                    <path fill="#000" fillRule="nonzero" d="M125.048 204.967c.009.121-.004.242-.037.358 0 0-8.56 1.429-10.312 0-.998-.843-2.305-1.226-3.6-1.056 0 0-3.316.09-3.866-1-.23-.46-.173-1.347-.03-2.222 1.276.127 3.29.445 4.08 1.203 1.197 1.154 3.224 2.305 4.467 2.395.974.062 6.796.247 9.298.322zM97.702 206.984s-4.003 1.471-6.756 1.657c-1.461.097-2.23-.799-2.622-1.664 1.018.342 2.432.703 3.175.373.881-.39 4.004-.644 5.755-.751.134.146.284.275.448.385z" opacity=".1"/>
                    <path fill="#CF6F80" fillRule="nonzero" d="M103.642 88.42c-3.303-1.285-7.551-5.526-6.49-7.507.235-.5.375-1.04.412-1.592.069-.749.079-1.501.03-2.252-.074-1.229-.222-2.452-.442-3.663 0 0 10.311.233 9.71 1.752-.175.445-.202 1.218-.155 2.084.048.866.173 1.844.303 2.672.18 1.136.36 2.002.36 2.002s-.63.883-1 .93c-.37.048 2.011 7.402-2.728 5.573z"/>
                    <path fill="#000" fillRule="nonzero" d="M95.202 200.594l-.077.085c-3.083-3.728-6.811.918-6.811.918l-.055-.098.19-2.111 5.848-1.52.828 2.533.077.193zM118.005 197.869s-2.252-.048-3.453 1.013-7.006.23-6.756 0c.074-.114.119-.245.13-.38l.788-.633 9.228-.273c.035.168.063.273.063.273z" opacity=".1"/>
                    <path fill="#2877C9" fillRule="nonzero" d="M99.038 168.591c-.167.415-.295.844-.38 1.284-.209 1.202-.267 2.426-.173 3.643.093 1.751 0 13.489 0 13.489s-1.979 3.13-3.082 4.234c-1.104 1.103 2.252 3.085 2.252 3.085.5 2.852-2.533 6.075-2.533 6.075-3.082-3.728-6.81.92-6.81.92s-2.027-3.502-2.533-4.753c-.505-1.251 1.98-2.117 2.853-2.625.873-.508-.043-3.503-.043-3.503s-.738-2.625-1.614-5.02c-.875-2.394.966-14.314.966-14.314s.095-2.117.323-2.855c.115-.533.138-1.081.067-1.622-.015-.182-.032-.335-.045-.438-.012-.102-.022-.15-.022-.15l.035-.06 1.251-2.332s10.089 3.473 9.488 4.942zM118.005 197.594s-2.252-.048-3.453 1c-1.201 1.049-7.006.23-6.756 0s.23-1.934.23-1.934c-3.405-4.649-.5-6.535-.5-6.535s-1.522-7.32-1.797-10.034c-.193-1.897-.43-6.994-.558-9.904-.055-1.25-.088-2.111-.088-2.111l2.783-.561.358-.073 6.71-1.346s.186 1.251.31 2.275c.063.437.098.877.106 1.318-.045.5 0 2.067 0 2.067l.228 4.697c-.15.492-.226 1.004-.228 1.519.045.598.918 9.16.918 9.16s1.519 5.11 1.001 5.477c-.518.368.736 4.985.736 4.985z"/>
                    <path fill="#000" fillRule="nonzero" d="M106.863 75.158c-.176.445-.203 1.218-.156 2.084-2.818 1.697-6.36 1.631-9.113-.17-.074-1.23-.222-2.454-.442-3.666 0 0 10.311.228 9.71 1.752z" opacity=".1"/>
                    <path fill="#CF6F80" fillRule="nonzero" d="M110.848 69.628c.002.901-.14 1.798-.42 2.655-1.294 3.964-5.256 6.42-9.382 5.814-4.126-.605-7.216-4.095-7.317-8.264v-.205c-.053-3.094 1.567-5.975 4.237-7.537 2.671-1.563 5.977-1.563 8.647 0 2.67 1.562 4.29 4.443 4.238 7.537h-.003z"/>
                    <path fill="#000" fillRule="nonzero" d="M103.642 88.42c-3.303-1.285-7.551-5.526-6.49-7.507.235-.5.375-1.04.412-1.592l4.522 3.716 2.797 2.294 2.127-5.414c.18 1.136.36 2.001.36 2.001s-.63.884-1 .931c-.37.048 2.011 7.4-2.728 5.57z" opacity=".1"/>
                    <path fill="#2877C9" fillRule="nonzero" d="M115.335 104.841L111.559 168.271 106.635 168.593 93.884 131.814 95.976 88.149 96.416 78.923 102.086 83.58 104.886 85.874 107.075 80.302 111.146 83.85z"/>
                    <path fill="#000" fillRule="nonzero" d="M99.038 168.591c-.167.415-.295.844-.38 1.284-3.583-.554-7.063-1.64-10.324-3.226l-.068-.035.023-.403.012-.21 1.252-2.332s10.086 3.453 9.485 4.922zM107.923 169.885c-.916.155-1.84.26-2.767.315-.055-1.251-.088-2.112-.088-2.112l2.783-.56.072 2.357zM115.23 168.383c-1.78.463-4.527.984-6.986.658l-.035-1.586 6.71-1.346s.186 1.238.31 2.274z" opacity=".1"/>
                    <path fill="#000" fillRule="nonzero" d="M108.199 169.332c-10.26 1.751-19.655-3.27-19.655-3.27l.09-1.702s.233-19.29-.413-20.768c-.645-1.479-1.148-8.978-.783-10.129.366-1.15-1.333-18.41-1.333-18.41l-.276-7.007-10.073-4.081 4.503-9.388c.609-1.316 1.132-2.67 1.567-4.054.783-2.437 4.419-4.831 4.419-4.831s3.728-2.392 5.202-2.302c1.473.09 3.405-2.117 3.405-2.117 1.426-3.636 2.717-1.99 2.717-1.99 0 .173 0 0-.07.539-.5 3.99 8.092 16.601 8.215 16.824l.818 19.932.828 25.225.839 27.529z" opacity=".1"/>
                    <path fill="#FFF" fillRule="nonzero" d="M107.923 169.332c-10.258 1.751-19.657-3.27-19.657-3.27l.093-1.702s.233-19.29-.415-20.768c-.648-1.479-1.149-8.978-.781-10.129.368-1.15-1.334-18.41-1.334-18.41l-.277-7.007-10.08-4.096 4.505-9.388c.607-1.317 1.13-2.67 1.566-4.054.78-2.437 4.419-4.831 4.419-4.831s3.728-2.392 5.2-2.302c1.47.09 3.405-2.117 3.405-2.117 1.429-3.636 3.002-1.99 3.002-1.99 0 .173-.15.25-.07.539 1.101 3.87 7.817 16.601 7.94 16.824l.828 19.932.828 25.225.828 27.544z"/>
                    <path fill="#000" fillRule="nonzero" d="M105.159 97.2c-1.104-.461-6.949-7.135-6.949-7.135v-1.518c-.213-.5-1.476-.196-2.502.155l.44-9.226.5.416c1.097 3.868 8.383 17.084 8.51 17.307z" opacity=".1"/>
                    <path fill="#FFF" fillRule="nonzero" d="M105.436 96.646c-1.106-.46-6.95-7.133-6.95-7.133v-1.52c-.213-.5-1.477-.194-2.503.156l.443-9.226.5.416c1.099 3.868 8.388 17.087 8.51 17.307z"/>
                    <path fill="#000" fillRule="nonzero" d="M88.544 129.927c.138 0 7.134-.735 7.134-.735s4.236 8.33 3.958 10.356c-.277 2.027-.78 3.821-2.484 3.503-1.704-.317-9.17.25-9.17.25l.562-13.374z" opacity=".1"/>
                    <path fill="#FFF" fillRule="nonzero" d="M88.266 129.375c.138 0 7.134-.736 7.134-.736s4.234 8.332 3.959 10.356c-.276 2.025-.784 3.821-2.485 3.503-1.702-.317-9.17.25-9.17.25l.562-13.373z"/>
                    <path fill="#CF6F80" fillRule="nonzero" d="M93.538 125.464s6.421 3.45 6.559 4.504c.137 1.053-3.268-.46-4.004-.644-.484-.116-.977-.193-1.474-.23l-4.906.133 3.825-3.763z"/>
                    <circle cx="103.367" cy="96.954" r="1" fill="#000" fillRule="nonzero" opacity=".1"/>
                    <circle cx="103.367" cy="96.679" r="1" fill="#3F3D56" fillRule="nonzero"/>
                    <circle cx="104.611" cy="126.199" r="1" fill="#000" fillRule="nonzero" opacity=".1"/>
                    <circle cx="104.611" cy="125.922" r="1" fill="#3F3D56" fillRule="nonzero"/>
                    <circle cx="104.04" cy="111.577" r="1" fill="#000" fillRule="nonzero" opacity=".1"/>
                    <circle cx="104.04" cy="111.301" r="1" fill="#3F3D56" fillRule="nonzero"/>
                    <path fill="#FFF" fillRule="nonzero" d="M119.614 128.954s.46.69 0 1.014c-.46.322.045 1.103.045 1.103s-1.149.673-.643 1.279c.505.605.185 3.34.185 3.34l-1.381 2.287s.082 1.474.087 3.465c0 3.108-.183 7.477-1.193 9.469l.14 16.341s-4.837 1.767-8.886 1.229l-.6-26.223s.876-14.87 1.198-17.723c.19-1.48.266-2.974.23-4.466 0 0-.137-4.464-.6-6.536 0 0-.5-8.975-.55-11.46-.023-1.188.04-4.656.11-7.954.077-3.606.165-7.006.165-7.006l-.913-7.226s.913-.093 1.188.275c.123.115.258.218.4.308 1.577 1.066 7.147 4.343 7.147 4.343s3.082 1.226 3.82 2.983c.739 1.757 1.252 3.003 1.61 3.503.357.5.552 2.853.552 2.853s1.061 4.328 1.89 5.061c.828.734 1.433 5.398 1.433 5.398l-7.319 5.755s-.643 9.573-.78 9.943c-.138.37 2.665 8.645 2.665 8.645z"/>
                    <path fill="#FFF" fillRule="nonzero" d="M119.891 128.954s.458.69 0 1.014c-.458.322.043 1.103.043 1.103s-1.141.68-.64 1.286c.5.606.184 3.34.184 3.34l-1.38 2.287s.082 1.474.09 3.466c0 3.108-.183 7.476-1.194 9.468l.137 16.342s-4.844 1.766-8.887 1.228l-.598-26.222s.875-14.87 1.198-17.723c.19-1.481.265-2.974.228-4.467 0 0-.138-4.463-.598-6.535 0 0-.5-8.975-.553-11.46-.023-1.189.042-4.657.11-7.955.078-3.605.165-7.006.165-7.006l-1.206-7.323s1.206 0 1.484.372c.122.117.256.22.4.308 1.577 1.066 7.149 4.344 7.149 4.344s3.08 1.226 3.818 2.983c.738 1.756 1.251 3.002 1.612 3.503.36.5.55 2.852.55 2.852s1.061 4.329 1.89 5.062c.827.733 1.426 5.387 1.426 5.387l-7.32 5.755s-.642 9.573-.783 9.944c-.14.37 2.675 8.647 2.675 8.647z"/>
                    <path fill="#000" fillRule="nonzero" d="M111.126 89.245l.66 1.926-3.477 3.503c.077-3.603.165-7.006.165-7.006l-1.206-7.323s1.206 0 1.484.372c.121.117.256.219.4.306l2.958 8.532-.984-.31z" opacity=".1"/>
                    <path fill="#FFF" fillRule="nonzero" d="M110.848 88.692l.664 1.926-3.478 3.503c.077-3.605.165-7.006.165-7.006l-1.209-7.323s1.209 0 1.484.372c.123.116.257.22.4.308l2.96 8.53-.986-.31z"/>
                    <path fill="#000" fillRule="nonzero" d="M110.848 69.628c.002.901-.14 1.798-.42 2.655-.095.014-.193-.01-.27-.068-.065-2.252-1.174-4.366-2.537-6.165-.383-.543-.847-1.025-1.377-1.427-.535-.401-1.2-.59-1.866-.528-.75.103-1.414.614-2.172.679-1 .082-1.897-.61-2.89-.646-.817.008-1.591.367-2.124.986-.522.617-.91 1.336-1.139 2.112-.393 1.175-.608 2.403-.635 3.643-.013.7-.08 1.579-.731 1.834.099-1.042-.243-2.077-.943-2.855l-.015-.015v-.205c-.053-3.094 1.567-5.975 4.237-7.537 2.671-1.563 5.977-1.563 8.647 0 2.67 1.562 4.29 4.443 4.238 7.537h-.003z" opacity=".1"/>
                    <path fill="#512E4E" fillRule="nonzero" d="M105.834 56.034c-1.3-.612-2.779-.728-4.158-.326-.694.205-1.347.538-2.05.706-1.501.363-3.253-.03-4.541.848-.716.5-1.146 1.291-1.547 2.06l-1 1.906c-.546 1.043-1.096 2.104-1.324 3.253-.228 1.148-.09 2.434.638 3.358.53.673 1.314 1.096 1.89 1.729.696.778 1.037 1.812.94 2.852.653-.25.716-1.13.73-1.831.028-1.24.243-2.468.636-3.644.229-.775.616-1.494 1.139-2.111.533-.619 1.307-.978 2.124-.986 1 .035 1.9.725 2.89.643.75-.063 1.416-.576 2.172-.676.666-.063 1.332.126 1.866.528.53.402.993.883 1.374 1.426 1.366 1.8 2.475 3.909 2.54 6.166.283.207.69-.063.83-.383s.146-.696.323-1c.206-.354.598-.541.906-.807.78-.673.976-1.806.946-2.835-.03-1.028-.23-2.071-.035-3.082.118-.62.383-1.201.528-1.814.145-.613.163-1.301-.18-1.83-.5-.775-1.554-.928-2.472-1-1.044-.09-1.977.025-2.643-.853-.312-.459-.664-.89-1.05-1.287-.133-.13-1.472-.955-1.472-1.01z"/>
                    <path fill="#000" fillRule="nonzero" d="M78.638 108.8l-2.615-4.835-.828 7.459s.46 3.313.368 3.82c-.093.509 1.887 5.063 1.887 5.063s6.538 11.645 9.208 12.245l9.02-6.445-2.392-3.038s-.828-.323-1.036 0c0 0-4.441-7.642-4.902-8.195-.46-.553-.37-1.656-.37-1.656s-.69-.736-.46-1.426c.23-.69-1.334-3.085-1.334-3.085l1.426-1.334-7.972 1.426z" opacity=".1"/>
                    <path fill="#FFF" fillRule="nonzero" d="M76.16 103.415l-.69.55-.828 7.459s.46 3.313.368 3.82c-.093.509 1.89 5.063 1.89 5.063s6.535 11.645 9.205 12.245l9.022-6.445-2.394-3.038s-.828-.323-1.036 0c0 0-4.441-7.642-4.902-8.195-.46-.553-.368-1.656-.368-1.656s-.69-.736-.46-1.426c.23-.69-1.336-3.085-1.336-3.085l1.426-1.334-9.896-3.958z"/>
                    <path fill="#000" fillRule="nonzero" d="M119.016 132.635c.5.608.185 3.338.185 3.338l-1.381 2.287s.082 1.476.087 3.465l-2.322.726c-.426.133-.89.052-1.245-.218-.355-.27-.558-.695-.544-1.14l.4-12.915 5.418 2.072c-.46.32.045 1.106.045 1.106s-1.149.67-.643 1.279z" opacity=".1"/>
                    <path fill="#FFF" fillRule="nonzero" d="M119.293 132.357c.5.608.185 3.34.185 3.34l-1.38 2.287s.082 1.474.09 3.466l-2.365.738c-.417.13-.871.05-1.219-.214-.347-.265-.546-.68-.533-1.117l.403-12.954 5.42 2.072c-.463.32.042 1.103.042 1.103s-1.143.674-.643 1.28z"/>
                    <path fill="#CF6F80" fillRule="nonzero" d="M121.087 126.202s-.367 2.35-1.288 2.487c-.921.138-1.334 3.8-2.252 3.67-.919-.13-.31-3.405-.278-4.04.033-.636-1-3.268-.228-3.866.774-.598 3.22 0 3.22 0l.826 1.749z"/>
                    <path fill="#000" fillRule="nonzero" d="M123.047 108.109l1.736-3.503s.69 2.67.69 4.096c0 1.426.966 1.566.966 1.566s1.059 1.251.5 2.162c-.557.91-.782 3.178-.782 3.178s.182 4.326-.646 4.924c-.828.598-1 2.027-1 2.027s-1.522 2.714-1.474 3.36c.047.646-2.117 5.017-2.117 5.017s1.058-5.432-5.11-7.78c0 0-.047-1.843.413-2.349.46-.505 1.179-.736.728-3.29-.45-2.555-.13-5.608-.13-6.22 0-.614 1.381-4.437 1.381-4.437l4.845 1.249z" opacity=".1"/>
                    <path fill="#FFF" fillRule="nonzero" d="M123.797 104.105l1.516.5s.694 2.67.694 4.097c0 1.426.965 1.566.965 1.566s1.059 1.251.5 2.162c-.557.91-.78 3.178-.78 3.178s.183 4.326-.645 4.924c-.829.598-1.014 2.027-1.014 2.027s-1.519 2.714-1.471 3.36c.048.646-2.12 5.017-2.12 5.017s1.062-5.432-5.109-7.78c0 0-.045-1.843.416-2.349.46-.505 1.178-.736.728-3.29-.45-2.555-.13-5.608-.13-6.22 0-.614 1.38-4.437 1.38-4.437l5.07-2.755z"/>
                    <path fill="#000" fillRule="nonzero" d="M90.306 194.901s2.417-1.519 4.003-.415c1.587 1.103-4.003.415-4.003.415zM109.087 190.205s2.14-.276 3.936 1.659c1.796 1.934-3.936-1.66-3.936-1.66z" opacity=".1"/>
                    <g fill="#000" fillRule="nonzero" opacity=".1">
                        <path d="M21.138 8.395c-.307.265-.703.455-.908.808-.175.303-.18.676-.32 1-.14.326-.548.591-.831.386-.065-2.252-1.176-4.366-2.54-6.168-.38-.543-.844-1.025-1.373-1.426-.536-.403-1.202-.59-1.87-.528-.75.103-1.41.613-2.169.676-1 .085-1.899-.608-2.892-.643-.817.008-1.59.368-2.122.988-.523.616-.91 1.335-1.139 2.11C4.581 6.772 4.367 8 4.34 9.24c-.015.698-.08 1.568-.726 1.829.015.184.015.37 0 .555.65-.25.716-1.13.73-1.832.029-1.239.243-2.467.636-3.643.229-.775.616-1.494 1.139-2.112.533-.618 1.306-.977 2.122-.985 1 .035 1.901.725 2.892.643.75-.063 1.416-.576 2.17-.676.667-.063 1.333.125 1.869.528.529.401.992.883 1.373 1.426 1.364 1.8 2.475 3.909 2.54 6.166.283.207.69-.063.83-.383s.146-.696.321-1.001c.205-.353.6-.54.908-.806.781-.673.976-1.806.946-2.835V6.02c-.047.891-.285 1.8-.95 2.375zM2.667 8.217c-.575-.633-1.36-1.056-1.889-1.726C.334 5.897.08 5.182.05 4.44c-.079.926.18 1.85.728 2.6.528.673 1.314 1.096 1.89 1.73.552.618.884 1.403.943 2.231.077-1.018-.264-2.024-.944-2.785zM22.577.663c-.148.613-.41 1.196-.53 1.814-.072.413-.098.833-.078 1.251.008-.238.034-.476.078-.71.12-.62.382-1.201.53-1.814.086-.339.114-.689.083-1.036-.016.167-.044.332-.083.495z" transform="translate(91.079 60.803)"/>
                    </g>
                    <ellipse cx="45.222" cy="201.159" fill="#2877C9" fillRule="nonzero" opacity=".1" rx="24.381" ry="3.916"/>
                    <path fill="#535461" fillRule="nonzero" d="M44.438 126.144H46.007000000000005V161.467H44.438z"/>
                    <path fill="#3F3D56" fillRule="nonzero" d="M55.866 161.36l-.098 1.591-.14 2.252-.057.936-.138 2.252-.06.936-.14 2.252-1.582 25.54c-.142 2.28-2.033 4.057-4.318 4.058H41.11c-2.285-.001-4.175-1.779-4.317-4.059l-1.574-25.557-.14-2.252-.057-.936-.14-2.252-.058-.935-.14-2.252-.1-1.592c-.035-.619.186-1.225.613-1.675.426-.45 1.019-.705 1.639-.704h16.817c.618.005 1.206.265 1.625.72.419.454.631 1.06.587 1.677z"/>
                    <path fill="#9D9CB5" fillRule="nonzero" d="M55.768 162.951L55.628 165.196 34.815 165.196 34.675 162.951zM55.571 166.131L55.433 168.378 35.013 168.378 34.873 166.131zM55.373 169.317L55.235 171.561 35.21 171.561 35.07 169.317z"/>
                    <path fill="#2877C9" fillRule="nonzero" d="M32.28 139.383c9.136 6.61 12.95 16.95 12.95 16.95s-11.01-.378-20.148-6.989c-9.138-6.61-12.944-16.947-12.944-16.947s11.005.375 20.142 6.986z"/>
                    <path stroke="#535461" strokeWidth="1.54" d="M12.13 132.397s11.43 6.343 15.096 11.595c3.666 5.252 18.003 12.34 18.003 12.34"/>
                    <path fill="#2877C9" fillRule="nonzero" d="M38.178 126.067c4.972 3.595 7.051 9.223 7.051 9.223s-5.993-.206-10.967-3.801c-4.974-3.596-7.048-9.226-7.048-9.226s5.99.206 10.964 3.804z"/>
                    <path stroke="#535461" strokeWidth="1.54" d="M27.214 122.263s6.22 3.453 8.214 6.31c1.994 2.858 9.801 6.717 9.801 6.717"/>
                    <path fill="#2877C9" fillRule="nonzero" d="M52.448 135.004c-5.713 6.278-6.921 14.483-6.921 14.483s8.054-1.977 13.762-8.257c5.707-6.28 6.92-14.483 6.92-14.483s-8.049 1.98-13.761 8.257z"/>
                    <path stroke="#535461" strokeWidth="1.54" d="M66.215 126.75s-7.442 6.435-9.333 10.87c-1.892 4.433-11.355 11.867-11.355 11.867"/>
                    <path fill="url(#bymqkatxjb)" fillRule="nonzero" d="M262.144 132.795s-4.13-20.553-2.55-23.11c0 0 .058-2.377-.037-5.407v-.348c.278.185.568.353.868.5 1.457.749 3.13.965 4.73.61l-1.252-1.393c-.3-.333-.613-.693-.678-1.133-.065-.44.115-.833.27-1.226 1.19-3.003 1.252-6.779-1.038-9.07-1.934-1.927-2.404-4.414-4.504-6.174-1.533-1.288-2.377-3.177-3.172-5.004-.673-1.544-1.352-3.1-1.737-4.736-.3-1.279-.42-2.603-.833-3.851-.413-1.249-1.186-2.462-2.395-3.02-.43-.198-.908-.31-1.3-.573-.516-.348-.827-.914-1.2-1.41-1.894-2.501-8.237-1.027-11.24-.012-.815.256-1.571.675-2.221 1.231l.027-.045c.023-.037.05-.075.076-.112-.33.266-.613.582-.841.938-.438.693-.62 1.501-.986 2.252-.44.888-2.89 3.368-1.837 4.366.074.067.159.122.25.16.396.165.831.209 1.252.126l-.045.107c-.36.881-.545 1.824-.543 2.775 0 4.111 3.39 7.444 7.576 7.444.787 0 1.57-.12 2.32-.358.017.095.032.19.05.285 0 .038.012.076.017.113l-.132.185c-.007-.011-.014-.022-.023-.032l-3.928 5.49c-.6.422-4.059 2.924-4.254 4.801-.205 2.054-.41 4.459-.41 4.459l-.028.515c-.347.29-.805.414-1.25.338-1.227-.2-1.227 4.504-1.227 4.504s-.816.75-1.376.1c-.56-.65-2.042 1.554-2.042 1.554l-9.283.4-.213.013-.5-1.549c-.112-.34-.477-.526-.818-.418-.039.013-.077.029-.113.048l-.035.02-.065.045-.032.03c-.018.016-.035.034-.05.052l-.03.035-.016.015c-.117.162-.15.37-.09.56l.43 1.33c-1.79.36-3.622 1.376-2.129 4.173l-7.571-1.399 2.45 2.057 12.645 2.61c-.167.3-.057.736.466 1.349 2.252 2.644 6.355 3.363 8.007 3.548.436.975.98 1.899 1.624 2.752l-.143 2.635s-4.181 20.082-4.947 21.1c.387-.437.74-.903 1.059-1.393-1.214 4.126-2.91 9.773-3.356 10.62-.715 1.35-1.378 6.818-.563 7.168.25.107.966.055 1.987-.023v.453l-.045 17.163s.205 10.526-.358 11.53c-.563 1.003-.713 3.107-.713 3.107s-2.252 4.151-4.036 5.82c-.012.013-.026.025-.04.035l-.055-.39s-2.144 2.707-6.889 2.555c0 0-2.854 1.856 1.38 1.956 4.233.1 9.64-.15 9.64-.15s3.776-5.755 6.939-5.004v4.361h.968v-4.431c.907-.598 1.53-1.54 1.724-2.61.168-1.11-.262-2.225-1.131-2.935-.388-.35-.612-.848-.618-1.371l-.035.03c0-.088-.023-.178-.033-.27-.277-2.252-.625-6.899.603-10.337 1.684-4.714 2.195-11.28.969-15.188-.396-1.25-.72-2.52-.974-3.806-.03-.162-.057-.317-.082-.463.838.114 1.668.28 2.484.5 2.84.784 9.053.93 14.358.887.012.145.027.297.045.45.094 1.06.292 2.11.59 3.133.666 2.001.971 10.827.971 10.827s.858 7.256.39 10.208c-.25 1.642-.5 3.29-.643 4.947v.033s-1.406 4.003-2.434 6.178c-.025.055-.053.11-.078.162-.274.025-.544.085-.803.178 0 0-1.379 2.752-2.752 3.208-1.374.455-.919 1.954 2.192 1.403 3.11-.55 7.806-1 7.806-1l.203-2.808.956-1.196-.25 2.8 1.018-.2-.135-3.406 1.564-1.956s1.889-1.682-.918-4.99v.073c-.03-.048-.058-.098-.09-.145v-.015c-.466-.72-.836-2.065-.158-4.45 1.226-4.308 1.939-8.219 1.939-8.219s2.737-10.476-.553-15.433h.145c-.337-.698-.575-1.439-.708-2.202-.017-.09-.032-.183-.045-.278 2.435-.14 4.824-.58 6.773-1.531-.007-.01-1.18-24.872-2.152-28.83zm-30.909-17.34v.05l-.5.025.5-.075zm-1.716.238c-.083.018-.16.055-.225.107-.216.305-.35.658-.393 1.029l-.781-.176s-.548-.117-1.336-.25l-.373-.375c1.026-.085 2.092-.21 3.108-.335z"/>
                    <path fill="#1D2366" fillRule="nonzero" d="M255.349 200.806L255.051 204.352 256.049 204.152 255.899 200.306z"/>
                    <path fill="#FFB0B1" fillRule="nonzero" d="M232.571 183.972c-1.203 3.428-.863 8.054-.593 10.301.1.83.193 1.336.193 1.336s-1.799 4.099-1.95 4.254c-.15.155-5.294 3.295-5.294 3.295l-3.595 2.1s-3.649-1.6-1.9-2.15c.358-.143.68-.362.944-.643 1.751-1.664 3.95-5.8 3.95-5.8s.15-2.099.701-3.097c.55-.999.35-11.49.35-11.49l.043-17.103v-2.23l6.844.05c.043.758.141 1.51.295 2.253.245 1.281.564 2.548.953 3.793 1.206 3.901.706 10.434-.94 15.13z"/>
                    <path fill="#000" fillRule="nonzero" d="M232.171 195.61s-1.799 4.098-1.95 4.253c-.15.155-5.294 3.295-5.294 3.295l-3.595 2.1s-3.649-1.6-1.9-2.15c.358-.143.68-.362.944-.643l.155 1.094 1.198-.05 10.26-9.23c.09.825.182 1.33.182 1.33z" opacity=".1"/>
                    <path fill="#1D2366" fillRule="nonzero" d="M232.046 194.51l-10.317 9.294-1.198.05-.25-1.752s-2.097 2.698-6.756 2.548c0 0-2.798 1.849 1.349 1.949 4.146.1 9.44-.15 9.44-.15s3.698-5.755 6.794-5.005v4.347h.95v-4.387c.894-.601 1.503-1.54 1.687-2.602.167-1.1-.25-2.208-1.104-2.922-.378-.355-.593-.85-.595-1.37z"/>
                    <path fill="#FFB0B1" fillRule="nonzero" d="M256.3 189.316c-.666 2.377-.303 3.716.152 4.434v.015c.584.887.99 1.879 1.196 2.92l.04.225-4.694 6.844-2.547 1s-4.096-1.398-3.348-1.798c.188-.098.48-.618.816-1.336 1-2.165 2.382-6.158 2.382-6.158v-.033c.145-1.649.375-3.293.63-4.93.458-2.944-.383-10.173-.383-10.173s-.3-8.79-.95-10.79c-.294-1.016-.49-2.058-.583-3.112-.136-1.251-.166-2.282-.166-2.282s2.698-3.753 7.642.3c.395.324.743.701 1.033 1.121 3.416 4.86.666 15.564.666 15.564s-.688 3.893-1.887 8.19z"/>
                    <path fill="#000" fillRule="nonzero" d="M257.696 196.91l-4.694 6.844-2.548 1s-4.096-1.398-3.348-1.798c.188-.098.48-.618.816-1.336 1.734-.015 2.632 1.636 2.632 1.636l2.197-.35s2.898-5.695 3.548-6.043c.651-.348.1-2.6.1-2.6v-.573c.018.02.033.043.053.063v.015c.584.886.99 1.878 1.196 2.92l.048.222z" opacity=".1"/>
                    <path fill="#1D2366" fillRule="nonzero" d="M250.705 203.404s-1.252-2.297-3.649-1.45c0 0-1.348 2.753-2.697 3.199-1.349.445-.898 1.946 2.15 1.398 3.047-.548 7.641-1 7.641-1l.2-2.8 3.098-3.946s1.846-1.674-.9-4.97v.573s.55 2.252-.101 2.6c-.65.348-3.538 6.045-3.538 6.045l-2.204.35z"/>
                    <path fill="#000" fillRule="nonzero" d="M232.271 162.79c.043.758.142 1.51.295 2.253-2.817-.413-5.432-.208-7.146-.073v-2.23l6.851.05zM257.798 166.186s-4.003.196-8.777.236c-.136-1.251-.166-2.282-.166-2.282s2.698-3.754 7.642.3c.395.323.743.7 1.033 1.12.078.214.167.423.268.626z" opacity=".1"/>
                    <path fill="#1D2366" fillRule="nonzero" d="M257.798 165.736s-17.535.848-22.88-.65c-5.344-1.5-10.641-.2-11.44-.549-.798-.347-.15-5.795.551-7.143.7-1.349 4.544-14.988 4.544-14.988l3.698-19.282 3.896-1.073.275-.078 6.789-1.872 4.974-1.373s9.891 38.616 9.043 41.463c-.308 1.09-.358 2.238-.145 3.35.13.76.363 1.5.695 2.195z"/>
                    <path fill="#C7DAF5" fillRule="nonzero" d="M219.38 109.938s-3.503 3.753-.85 5.845c2.651 2.092 4.396.2 4.396.2l-3.546-6.045z"/>
                    <path fill="#000" fillRule="nonzero" d="M219.38 109.938s-3.503 3.753-.85 5.845c2.651 2.092 4.396.2 4.396.2l-3.546-6.045z" opacity=".1"/>
                    <path fill="#FFB0B1" fillRule="nonzero" d="M247.682 85.261s-.41.39-1.028.966c-.881.823-2.185 2.027-3.34 3.035-1.602 1.394-2.923 2.417-2.45 1.544.472-.873.382-2.394.147-3.818-.017-.095-.032-.19-.05-.283-.195-1.046-.453-2.078-.773-3.093 0 0 2.587-3.343 4.018-4.661.533-.5.906-.706.929-.358.025.468.375 1.501.81 2.597.013.035.025.068.04.103.29.75.619 1.521.906 2.187.44 1.02.79 1.781.79 1.781z"/>
                    <path fill="#000" fillRule="nonzero" d="M245.985 81.293c-.495 2.663-2.401 4.846-4.974 5.695-.199-1.142-.474-2.27-.823-3.376 0 0 4.872-6.293 4.947-5.019.017.483.398 1.554.85 2.7zM240.526 88.67l.63-.889s.418 2.547 1.954 1.424c1.537-1.124 1.612 8.455 1.612 8.455l-1.649 24.653-11.915-.713.337-11.913 1.35-6.005 3.334-8.73 1.985-2.885 2.362-3.398z" opacity=".1"/>
                    <path fill="#1D2366" fillRule="nonzero" d="M244.722 97.812l-1.501 22.292-.158 2.362-6.643-.398-.25-.015-5.005-.3.338-11.915 1.349-6.006 3.335-8.73 1.984-2.885 2.362-3.41.63-.886s.419 2.547 1.955 1.424l.033-.023c1.5-.95 1.57 8.49 1.57 8.49z"/>
                    <path fill="#FFF" fillRule="nonzero" d="M233.02 101.746s-.599 1.25-1.8 1.048c-1.2-.203-1.198 4.504-1.198 4.504s-.799.75-1.349.1c-.55-.65-2.002 1.549-2.002 1.549l-9.093.4s4.046 1.85 3.253 7.444c0 0 13.737-.85 14.187-2.15.45-1.298-1.999-12.895-1.999-12.895z"/>
                    <path fill="#000" fillRule="nonzero" d="M233.02 101.746s-.599 1.25-1.8 1.048c-1.2-.203-1.198 4.504-1.198 4.504s-.799.75-1.349.1c-.55-.65-2.002 1.549-2.002 1.549l-9.093.4s4.046 1.85 3.253 7.444c0 0 13.737-.85 14.187-2.15.45-1.298-1.999-12.895-1.999-12.895z" opacity=".03"/>
                    <path fill="#FFF" fillRule="nonzero" d="M206.594 112.287L208.991 114.334 228.723 118.48 226.276 115.983zM240.563 89.457c-.328.5-1.266 3.063-2.049 5.3-.653 1.864-1.199 3.503-1.199 3.503s-1.273 8.292-1.924 9.791c-.65 1.499-.297 7.344-.297 7.344l-2.425 14.435s-1.099 7.444-2.795 11.89c-1.674 4.376-3.538 6.428-3.596 6.493.751-1.016 4.842-21.018 4.842-21.018l1.351-25.227s.198-2.397.398-4.446c.2-2.05 4.254-4.847 4.254-4.847l3.908-5.557c.393.525.13 1.441-.468 2.34z"/>
                    <path fill="#FFB0B1" fillRule="nonzero" d="M230.372 121.878s-5.755-.25-8.542-3.598c-2.788-3.348 6.443-1.336 6.443-1.336l2.4.55-.301 4.384z"/>
                    <path fill="#000" fillRule="nonzero" d="M257.248 160.194c-.308 1.09-.358 2.237-.145 3.35-6.278.445-12.994-1.251-12.994-1.251-1.251 1.151-4.547 2.847-4.547 2.847l-1.796-22.269c-1.149-3.002-1.599-18.734-1.599-18.734s.103-.823.25-2.056c0-.03 0-.063.013-.093.448-3.445 1.336-9.913 1.771-10.787.6-1.2-1.846-4.396-1.846-4.396l1.113-9.496.135-1.146c2.347-1.048 4.146-4.396 4.146-4.396l1.382-2.42c1.5-.963 1.578 8.478 1.578 8.478l-1.5 22.291 4.973-1.373s9.914 38.603 9.066 41.45z" opacity=".1"/>
                    <path fill="#FFF" fillRule="nonzero" d="M263.69 161.733c-6.843 3.397-19.28.25-19.28.25-1.252 1.15-4.547 2.847-4.547 2.847l-1.8-22.27c-1.145-3.002-1.596-18.733-1.596-18.733s1.446-11.737 2.047-12.936c.175-.35.09-.87-.118-1.431-1.02-2.668-1.396-5.54-1.096-8.38l.48-4.081.133-1.144c2.35-1.05 4.15-4.398 4.15-4.398l1.25-2.192 2.302-4.039 1.091-1.911.185.167 1.414 1.281 1.501 1.251c1.96 1.652 5.345 4.56 7.091 6.338 1.537 1.567 2.022 7.66 2.162 12.246.093 3.02.038 5.387.038 5.387-1.549 2.55 2.502 23.02 2.502 23.02.943 3.956 2.092 28.728 2.092 28.728z"/>
                    <path fill="#000" fillRule="nonzero" d="M250.554 91.407s-4.696 8.94-4.15 12.338c.545 3.398 2.096 7.244 1.348 8.142-.521.69-1.335 1.096-2.2 1.098-.75.05-2.752 1.45-2.752 1.6 0 .15-1.849.15-3.503.85-1.654.7-4.096 1.098-4.096 1.098s-4.754-.15-5.197.3c-.443.451-.898 3.146.05 5.295.949 2.15 2.002 3.753 2.798 4.046.795.293 5.845-1.398 9.94-1.799 4.097-.4 8.543-3.645 8.543-3.645s4.897-1.752 5.755-4.697c.858-2.945-1.048-19.132-1.048-19.132s-1.442-7.544-5.488-5.494z" opacity=".03"/>
                    <path fill="#000" fillRule="nonzero" d="M249.954 90.656s-4.697 8.943-4.146 12.338c.55 3.396 2.097 7.244 1.346 8.145-.52.69-1.333 1.097-2.197 1.098-.75.05-2.752 1.449-2.752 1.6 0 .15-1.85.15-3.503.847-1.654.698-4.096 1.099-4.096 1.099s-4.754-.15-5.195.3c-.44.45-.9 3.148.05 5.295.951 2.146 2.002 3.753 2.798 4.046.795.292 5.845-1.4 9.94-1.797 4.097-.398 8.543-3.648 8.543-3.648s4.894-1.752 5.743-4.694c.848-2.943-1.049-19.134-1.049-19.134s-1.436-7.542-5.482-5.495z" opacity=".03"/>
                    <path fill="#FFF" fillRule="nonzero" d="M250.407 90.956s-4.697 8.943-4.146 12.338c.55 3.396 2.097 7.244 1.348 8.142-.519.693-1.334 1.1-2.199 1.101-.75.05-2.752 1.45-2.752 1.597 0 .147-1.847.15-3.503.85-1.657.701-4.096 1.099-4.096 1.099s-4.755-.15-5.197.3c-.443.45-.899 3.148.05 5.295.948 2.147 2.001 3.753 2.797 4.046.796.293 5.845-1.399 9.941-1.8 4.096-.4 8.542-3.645 8.542-3.645s4.897-1.751 5.755-4.696c.859-2.945-1.035-19.132-1.035-19.132s-1.462-7.532-5.505-5.495z"/>
                    <path fill="#000" fillRule="nonzero" d="M250.304 114.942s-3.753-.75-2.447.5c1.306 1.252 1.299 2.347 2.898 2.297 1.598-.05-.45-2.797-.45-2.797zM256.647 141.86s-1.696 1.149 1.549 3.796-1.549-3.796-1.549-3.796zM253.41 151.301c0 .15-.601 5.505 1.646 6.843 2.247 1.34-1.647-6.843-1.647-6.843z" opacity=".1"/>
                    <path fill="#FFB0B1" fillRule="nonzero" d="M217.734 109.335c-1.812.062-5.725.615-3.696 4.401 1.794 3.35 4.809 1.11 6.505-.588-.413-1.584-1.42-2.949-2.81-3.813z"/>
                    <path fill="#FFB0B1" fillRule="nonzero" d="M220.566 113.118l.075-.078-.075.078z"/>
                    <path fill="#000" fillRule="nonzero" d="M249.806 86.167c-1.921 1.314-3.533 2.422-3.848 2.652-.86.638-2.502 4.384-3.56 6.296-.844 1.539-3.584 1.934-4.617 2.032l.132-1.144c2.35-1.05 4.15-4.399 4.15-4.399l4.643-8.142 1.599 1.454 1.501 1.251z" opacity=".1"/>
                    <path fill="#DCE7FF" fillRule="nonzero" d="M249.806 86.017c-1.921 1.314-3.533 2.422-3.848 2.655-.86.635-2.502 4.381-3.56 6.293-.844 1.539-3.584 1.934-4.617 2.031l.132-1.143c2.35-1.05 4.15-4.399 4.15-4.399l4.643-8.142 1.599 1.449s.6.495 1.501 1.256z"/>
                    <path fill="#FFB0B1" fillRule="nonzero" d="M246.108 79.641c.001 1.502-.454 2.97-1.306 4.207-2.079 3.023-6.054 4.073-9.355 2.472-3.3-1.602-4.936-5.375-3.848-8.878 1.088-3.504 4.573-5.687 8.2-5.137 3.627.55 6.308 3.668 6.31 7.336z"/>
                    <path fill="#000" fillRule="nonzero" d="M259.06 104.6c-1.017-.625-1.844-1.513-2.395-2.572-.418-.825-.696-1.779-1.409-2.364-.643-.526-1.501-.653-2.302-.888-2.632-.779-4.84-3.18-4.922-5.923-.04-1.291.363-2.58.18-3.858-.103-.724-.391-1.409-.835-1.99-.22-.277-.463-.538-.723-.778-.35-.33-.719-.65-1.039-1-.202-.218-.378-.457-.525-.714-.12-.21-.216-.432-.288-.663-.5-1.531-.045-3.348-.596-4.897l-.03-.085c-.207-.55-.63-1.1-1.218-1.143-.588-.043-1.091.445-1.652.663-1.173.455-2.44-.32-3.418-1.111-.978-.79-2.081-1.694-3.325-1.519-.823.118-1.474.678-2.232.968-.171.067-.348.118-.528.153 1.324-3.3 4.803-5.198 8.294-4.523 3.491.675 6.013 3.732 6.011 7.288 0 .52-.054 1.04-.163 1.549.013.035.025.067.04.102.29.751.619 1.522.906 2.187l1.414 1.281 1.501 1.251c1.96 1.652 5.345 4.56 7.091 6.338 1.537 1.572 2.017 7.662 2.162 12.249z" opacity=".1"/>
                    <path fill="#591D4B" fillRule="nonzero" d="M232.244 72.155c.357-.728.535-1.544.963-2.234.628-1.001 1.724-1.642 2.85-2.03 2.94-1.013 9.153-2.484 11.01 0 .365.5.667 1.056 1.173 1.401.385.263.85.376 1.274.573 1.183.556 1.939 1.767 2.342 3.003.402 1.236.523 2.562.818 3.836.378 1.634 1.04 3.183 1.701 4.721.778 1.817 1.604 3.701 3.105 4.985 2.05 1.751 2.503 4.231 4.404 6.153 2.252 2.282 2.18 6.047 1.019 9.037-.153.393-.326.804-.266 1.222.06.417.37.798.663 1.13l1.232 1.39c-2.913.702-6.208-.819-7.565-3.489-.417-.826-.695-1.776-1.41-2.364-.641-.526-1.502-.65-2.3-.886-2.633-.78-4.84-3.185-4.922-5.928-.04-1.288.363-2.577.18-3.853-.101-.729-.39-1.418-.838-2.002-.688-.898-1.727-1.501-2.287-2.502-.948-1.674-.228-3.848-.91-5.645-.211-.55-.631-1.1-1.22-1.143-.587-.043-1.09.445-1.653.663-1.171.455-2.437-.318-3.416-1.111-.978-.793-2.082-1.694-3.328-1.517-.823.116-1.47.676-2.23.969-.56.215-1.696.408-2.186-.065-1.036-.954 1.364-3.423 1.797-4.314z"/>
                    <path fill="#000" fillRule="nonzero" d="M257.663 101.027c-.42-.825-.696-1.776-1.411-2.362-.64-.525-1.501-.653-2.302-.888-2.63-.778-4.837-3.183-4.922-5.925-.04-1.289.363-2.58.183-3.856-.105-.724-.394-1.408-.838-1.989-.691-.898-1.73-1.501-2.287-2.502-.949-1.672-.228-3.846-.914-5.645-.207-.548-.63-1.099-1.216-1.144-.585-.045-1.093.448-1.654.666-1.17.455-2.44-.32-3.415-1.111-.976-.79-2.084-1.694-3.328-1.519-.823.118-1.474.678-2.23.969-.56.215-1.698.41-2.189-.063-1.03-1 1.369-3.465 1.8-4.351.357-.73.535-1.544.965-2.235l.073-.112c-.322.266-.6.582-.824.936-.428.69-.605 1.5-.963 2.234-.433.886-2.832 3.358-1.799 4.351.5.476 1.626.28 2.187.065.75-.292 1.406-.853 2.23-.968 1.25-.178 2.351.726 3.327 1.516s2.252 1.567 3.418 1.111c.56-.217 1.051-.708 1.652-.663.6.045 1 .593 1.218 1.144.683 1.796-.037 3.97.91 5.645.561.983 1.6 1.598 2.288 2.502.448.583.736 1.273.838 2.001.183 1.277-.22 2.565-.18 3.854.083 2.752 2.29 5.147 4.922 5.927.793.236 1.659.36 2.3.886.717.588 1 1.539 1.41 2.365 1.357 2.67 4.652 4.19 7.564 3.488l-.58-.656c-2.525.038-5.08-1.399-6.233-3.67z" opacity=".1"/>
                    <path fill="#000" fillRule="nonzero" d="M240.413 89.608c-.328.5-1.266 3.062-2.05 5.3-.732-.286-1.398-2.105-1.398-2.105l3.909-5.56c.4.55.137 1.464-.46 2.365z" opacity=".1"/>
                    <path fill="#DCE7FF" fillRule="nonzero" d="M240.563 89.457c-.328.5-1.266 3.063-2.049 5.3-.733-.283-1.399-2.104-1.399-2.104l3.909-5.558c.4.548.137 1.464-.46 2.362z"/>
                    <path fill="#BE8B87" fillRule="nonzero" d="M217.839 115.02l-2.167-6.834c-.052-.161-.037-.337.04-.488.079-.15.213-.264.375-.315.336-.105.693.08.8.415l2.168 6.826-.216 1.429-1-1.033z"/>
                    <path fill="#FFF" fillRule="nonzero" d="M215.877 107.586c.336-.107.695.079.803.415l2.167 6.826-.163 1.07.158.166.215-1.429-2.18-6.826c-.107-.334-.464-.52-.8-.415-.136.044-.253.132-.333.25.043-.023.087-.042.133-.057z" opacity=".1"/>
                    <path fill="#EFC8C4" fillRule="nonzero" d="M217.839 115.02L219.055 114.634 218.877 115.805 218.839 116.063 218.484 115.693z"/>
                    <path fill="#727A9C" fillRule="nonzero" d="M218.484 115.693c.021-.027.048-.05.078-.065.036-.023.081-.023.117 0 .017.02.032.043.043.067.033.056.09.094.155.103l-.038.25-.355-.355z"/>
                    <path fill="#FFB0B1" fillRule="nonzero" d="M215.66 110.613s4.345-.025 3.322 1.824c-1.023 1.85-2.622 2.072-2.622 2.072l-.7-3.896z"/>
                    <path fill="#2877C9" fillRule="nonzero" d="M188.628 27.629h-.187c-7.467 0-14.07 3.95-17.868 9.78-3.799-5.83-10.402-9.78-17.868-9.78h-.188c-11.662.111-21.06 9.593-21.066 21.256 0 6.958 3.048 16.832 8.99 24.956 11.323 15.481 30.132 29.026 30.132 29.026S189.38 89.325 200.7 73.84c5.945-8.124 8.99-17.998 8.99-24.956-.006-11.662-9.402-21.144-21.063-21.256zm-2.685 47.403c-1.74-.006-3.298-1.082-3.92-2.707h-4.464c-.603-.004-1.137-.39-1.329-.96l-1.371-4.132-4.339 15.16c-.173.6-.722 1.013-1.346 1.014h-.088c-.653-.031-1.195-.515-1.3-1.16l-4.472-26.894-3.268 15.914c-.154.622-.713 1.059-1.354 1.058h-6.288c-.513.022-.997-.24-1.26-.681-.263-.441-.263-.991 0-1.433.263-.441.747-.703 1.26-.68h5.187l4.63-21.397c.156-.652.753-1.102 1.423-1.074.67.028 1.227.526 1.329 1.19l4.566 27.433 3.889-13.564c.166-.587.699-.994 1.308-1.001h.028c.603 0 1.138.388 1.326.96l2.48 7.46h3.398c.67-2.037 2.769-3.24 4.865-2.789 2.097.451 3.515 2.411 3.288 4.543-.227 2.133-2.026 3.75-4.17 3.75l-.008-.01z"/>
                </g>
            </g>
        </g>
    </g>
</svg>
