<svg xmlns="http://www.w3.org/2000/svg" width="24" height="22" viewBox="0 0 24 22">
    <g fill="none" fillRule="evenodd">
        <g fill="#EE3D3D" fillRule="nonzero">
            <g>
                <path d="M23.76 18.847L13.347.806c-.604-1.046-2.115-1.046-2.719 0L.212 18.847c-.603 1.046.152 2.356 1.36 2.356h20.83c1.207 0 1.962-1.31 1.359-2.356zM12.002 6.361c.668 0 1.208.555 1.188 1.222l-.196 6.852c-.015.54-.457.967-.997.967s-.981-.432-.996-.967l-.191-6.852c-.015-.667.52-1.222 1.192-1.222zm-.014 12.393c-.683 0-1.237-.555-1.237-1.237s.554-1.237 1.237-1.237c.682 0 1.236.555 1.236 1.237s-.554 1.237-1.236 1.237z" transform="translate(-529 -400) translate(529 400)"/>
            </g>
        </g>
    </g>
</svg>
