<svg xmlns="http://www.w3.org/2000/svg" width="78" height="74" viewBox="0 0 78 74">
    <g fill="none" fillRule="evenodd">
        <g fillRule="nonzero">
            <g>
                <g fill="#0096dc">
                    <path d="M44.889.453c-.386-.309-.893-.427-1.378-.32L1.261 9.759c-.743.168-1.268.825-1.261 1.578v54.548c0 .791.585 1.464 1.378 1.585l42.25 6.417c.887.135 1.717-.466 1.853-1.342.012-.08.019-.161.019-.243V1.712c.001-.49-.224-.953-.611-1.259z" transform="translate(-681 -519) translate(681 519)"/>
                    <path d="M76.375 67.489h-32.5c-.897 0-1.625-.718-1.625-1.604 0-.887.728-1.605 1.625-1.605H74.75V9.733H43.875c-.897 0-1.625-.719-1.625-1.605s.728-1.604 1.625-1.604h32.5c.897 0 1.625.719 1.625 1.605v57.756c0 .886-.727 1.604-1.625 1.604z" transform="translate(-681 -519) translate(681 519)"/>
                </g>
                <path fill="#FFF" d="M28.948 49c-.718 0-1.348-.461-1.546-1.13l-4.895-16.59-4.895 16.59c-.354.828-1.333 1.222-2.188.88-.41-.165-.737-.481-.907-.88l-6.44-21.837c-.27-.82.198-1.698 1.046-1.96.847-.26 1.753.194 2.022 1.015.01.028.018.058.026.087l4.895 16.587 4.895-16.59c.354-.828 1.333-1.221 2.188-.879.41.165.737.481.907.879l4.892 16.59 4.895-16.587c.232-.82 1.106-1.304 1.954-1.08l.036.01c.854.237 1.349 1.1 1.105 1.928l-6.441 21.838c-.199.669-.83 1.13-1.55 1.129z" transform="translate(-681 -519) translate(681 519)"/>
                <g fill="#0096dc">
                    <path d="M27.297 3.202H1.653C.768 3.202.05 2.497.05 1.629.05.759.768.055 1.653.055h25.644c.885 0 1.603.705 1.603 1.574 0 .869-.718 1.573-1.603 1.573zM27.297 12.64H1.653c-.885 0-1.603-.704-1.603-1.573 0-.868.718-1.573 1.603-1.573h25.644c.885 0 1.603.705 1.603 1.573 0 .87-.718 1.574-1.603 1.574zM27.297 22.08H1.653c-.885 0-1.603-.705-1.603-1.574 0-.868.718-1.573 1.603-1.573h25.644c.885 0 1.603.705 1.603 1.573 0 .87-.718 1.574-1.603 1.574zM27.297 31.518H1.653c-.885 0-1.603-.704-1.603-1.573s.718-1.573 1.603-1.573h25.644c.885 0 1.603.704 1.603 1.573 0 .87-.718 1.573-1.603 1.573zM27.297 40.957H1.653c-.885 0-1.603-.704-1.603-1.573s.718-1.573 1.603-1.573h25.644c.885 0 1.603.704 1.603 1.573s-.718 1.573-1.603 1.573z" transform="translate(-681 -519) translate(681 519) translate(41 16)"/>
                </g>
            </g>
        </g>
    </g>
</svg>
